<?xml version="1.0" encoding="utf-8" standalone="no"?>
<!DOCTYPE svg PUBLIC "-//W3C//DTD SVG 1.1//EN"
  "http://www.w3.org/Graphics/SVG/1.1/DTD/svg11.dtd">
<svg xmlns:xlink="http://www.w3.org/1999/xlink" width="249.448819pt" height="187.370079pt" viewBox="0 0 249.448819 187.370079" xmlns="http://www.w3.org/2000/svg" version="1.1">
 <metadata>
  <rdf:RDF xmlns:dc="http://purl.org/dc/elements/1.1/" xmlns:cc="http://creativecommons.org/ns#" xmlns:rdf="http://www.w3.org/1999/02/22-rdf-syntax-ns#">
   <cc:Work>
    <dc:type rdf:resource="http://purl.org/dc/dcmitype/StillImage"/>
    <dc:format>image/svg+xml</dc:format>
    <dc:creator>
     <cc:Agent>
      <dc:title>EasyViz</dc:title>
     </cc:Agent>
    </dc:creator>
   </cc:Work>
  </rdf:RDF>
 </metadata>
 <defs>
  <style type="text/css">*{stroke-linejoin: round; stroke-linecap: butt}</style>
 </defs>
 <g id="figure_1">
  <g id="patch_1">
   <path d="M 0 187.370079 
L 249.448819 187.370079 
L 249.448819 0 
L 0 0 
z
" style="fill: #ffffff"/>
  </g>
  <g id="easyviz-axes-c733e892ae73784e">
   <g id="patch_2">
    <path d="M 47.395276 144.274961 
L 192.075591 144.274961 
L 192.075591 22.484409 
L 47.395276 22.484409 
z
" style="fill: #ffffff"/>
   </g>
   <g id="matplotlib.axis_1">
    <g id="xtick_1">
     <g id="easyviz-axis-tick-55fa9a7ca5a5ee6b">
      <defs>
       <path id="m4a1f4d3a17" d="M 0 0 
L 0 3.5 
" style="stroke: #000000; stroke-width: 0.6"/>
      </defs>
      <g>
       <use xlink:href="#m4a1f4d3a17" x="119.735433" y="144.274961" style="stroke: #000000; stroke-width: 0.6"/>
      </g>
     </g>
     <g id="easyviz-tick-label-5d983dcecf828e06">
      <text style="font-size: 8px; font-family: 'DejaVu Sans'; text-anchor: middle" x="119.735433" y="157.353086" transform="rotate(-0 119.735433 157.353086)">A</text>
     </g>
    </g>
   </g>
   <g id="matplotlib.axis_2">
    <g id="ytick_1">
     <g id="easyviz-axis-tick-8e1c294e3379762a">
      <defs>
       <path id="me4ba3097ba" d="M 0 0 
L -3.5 0 
" style="stroke: #000000; stroke-width: 0.6"/>
      </defs>
      <g>
       <use xlink:href="#me4ba3097ba" x="47.395276" y="144.274961" style="stroke: #000000; stroke-width: 0.6"/>
      </g>
     </g>
     <g id="easyviz-tick-label-57febe4cb684f4bd">
      <text style="font-size: 8px; font-family: 'DejaVu Sans'; text-anchor: end" x="40.395276" y="147.314023" transform="rotate(-0 40.395276 147.314023)">0.0</text>
     </g>
    </g>
    <g id="ytick_2">
     <g id="easyviz-axis-tick-773c666f098ceb3d">
      <g>
       <use xlink:href="#me4ba3097ba" x="47.395276" y="124.225345" style="stroke: #000000; stroke-width: 0.6"/>
      </g>
     </g>
     <g id="easyviz-tick-label-3ce4bc8080152ca7">
      <text style="font-size: 8px; font-family: 'DejaVu Sans'; text-anchor: end" x="40.395276" y="127.264407" transform="rotate(-0 40.395276 127.264407)">0.5</text>
     </g>
    </g>
    <g id="ytick_3">
     <g id="easyviz-axis-tick-7b8c8fd4a49c9682">
      <g>
       <use xlink:href="#me4ba3097ba" x="47.395276" y="104.175728" style="stroke: #000000; stroke-width: 0.6"/>
      </g>
     </g>
     <g id="easyviz-tick-label-00ea6e4adfc4d4bb">
      <text style="font-size: 8px; font-family: 'DejaVu Sans'; text-anchor: end" x="40.395276" y="107.214791" transform="rotate(-0 40.395276 107.214791)">1.0</text>
     </g>
    </g>
    <g id="ytick_4">
     <g id="easyviz-axis-tick-f4a5d9c5fb613ecc">
      <g>
       <use xlink:href="#me4ba3097ba" x="47.395276" y="84.126112" style="stroke: #000000; stroke-width: 0.6"/>
      </g>
     </g>
     <g id="easyviz-tick-label-2d0be86b20ad4acd">
      <text style="font-size: 8px; font-family: 'DejaVu Sans'; text-anchor: end" x="40.395276" y="87.165175" transform="rotate(-0 40.395276 87.165175)">1.5</text>
     </g>
    </g>
    <g id="ytick_5">
     <g id="easyviz-axis-tick-bd287d4ddd92159b">
      <g>
       <use xlink:href="#me4ba3097ba" x="47.395276" y="64.076496" style="stroke: #000000; stroke-width: 0.6"/>
      </g>
     </g>
     <g id="easyviz-tick-label-5a9aa9c621720d22">
      <text style="font-size: 8px; font-family: 'DejaVu Sans'; text-anchor: end" x="40.395276" y="67.115559" transform="rotate(-0 40.395276 67.115559)">2.0</text>
     </g>
    </g>
    <g id="ytick_6">
     <g id="easyviz-axis-tick-360df2707819d0cd">
      <g>
       <use xlink:href="#me4ba3097ba" x="47.395276" y="44.02688" style="stroke: #000000; stroke-width: 0.6"/>
      </g>
     </g>
     <g id="easyviz-tick-label-a4d55b59ad2b8af9">
      <text style="font-size: 8px; font-family: 'DejaVu Sans'; text-anchor: end" x="40.395276" y="47.065943" transform="rotate(-0 40.395276 47.065943)">2.5</text>
     </g>
    </g>
    <g id="ytick_7">
     <g id="easyviz-axis-tick-0bbaa9bc49cbe83d">
      <g>
       <use xlink:href="#me4ba3097ba" x="47.395276" y="23.977264" style="stroke: #000000; stroke-width: 0.6"/>
      </g>
     </g>
     <g id="easyviz-tick-label-a95435e8b688ce33">
      <text style="font-size: 8px; font-family: 'DejaVu Sans'; text-anchor: end" x="40.395276" y="27.016327" transform="rotate(-0 40.395276 27.016327)">3.0</text>
     </g>
    </g>
    <g id="easyviz-axis-label-5f702097b13456c5">
     <text style="font-size: 8px; font-family: 'DejaVu Sans'; text-anchor: middle" x="21.750901" y="83.379685" transform="rotate(-90 21.750901 83.379685)">Value</text>
    </g>
   </g>
   <g id="easyviz-bar-1">
    <path d="M 80.277165 144.274961 
L 159.193701 144.274961 
L 159.193701 64.076496 
L 80.277165 64.076496 
z
" clip-path="url(#pfe70a70a08)" style="fill: #29acf3"/>
   </g>
   <g id="easyviz-axis-line-a25b05ec84419760">
    <path d="M 47.395276 144.274961 
L 47.395276 22.484409 
" style="fill: none; stroke: #000000; stroke-width: 0.6; stroke-linejoin: miter; stroke-linecap: square"/>
   </g>
   <g id="easyviz-axis-line-583586e852f58ad3">
    <path d="M 47.395276 144.274961 
L 192.075591 144.274961 
" style="fill: none; stroke: #000000; stroke-width: 0.6; stroke-linejoin: miter; stroke-linecap: square"/>
   </g>
   <g id="easyviz-observation-1">
    <path d="M 100.006299 105.668434 
C 100.402169 105.668434 100.781879 105.511153 101.061801 105.23123 
C 101.341724 104.951308 101.499005 104.571599 101.499005 104.175728 
C 101.499005 103.779858 101.341724 103.400149 101.061801 103.120226 
C 100.781879 102.840304 100.402169 102.683023 100.006299 102.683023 
C 99.610429 102.683023 99.23072 102.840304 98.950797 103.120226 
C 98.670875 103.400149 98.513594 103.779858 98.513594 104.175728 
C 98.513594 104.571599 98.670875 104.951308 98.950797 105.23123 
C 99.23072 105.511153 99.610429 105.668434 100.006299 105.668434 
z
" clip-path="url(#pfe70a70a08)" style="fill: #333333"/>
   </g>
   <g id="easyviz-observation-2">
    <path d="M 139.464567 25.469969 
C 139.860437 25.469969 140.240147 25.312689 140.520069 25.032766 
C 140.799991 24.752844 140.957272 24.373134 140.957272 23.977264 
C 140.957272 23.581394 140.799991 23.201684 140.520069 22.921762 
C 140.240147 22.64184 139.860437 22.484559 139.464567 22.484559 
C 139.068697 22.484559 138.688987 22.64184 138.409065 22.921762 
C 138.129142 23.201684 137.971862 23.581394 137.971862 23.977264 
C 137.971862 24.373134 138.129142 24.752844 138.409065 25.032766 
C 138.688987 25.312689 139.068697 25.469969 139.464567 25.469969 
z
" clip-path="url(#pfe70a70a08)" style="fill: #333333"/>
   </g>
  </g>
 </g>
 <defs>
  <clipPath id="pfe70a70a08">
   <rect x="47.395276" y="22.484409" width="144.680315" height="121.790551"/>
  </clipPath>
 </defs>
</svg>
