<?xml version="1.0" encoding="utf-8" standalone="no"?>
<!DOCTYPE svg PUBLIC "-//W3C//DTD SVG 1.1//EN"
  "http://www.w3.org/Graphics/SVG/1.1/DTD/svg11.dtd">
<svg xmlns:xlink="http://www.w3.org/1999/xlink" width="249.448819pt" height="198.425197pt" viewBox="0 0 249.448819 198.425197" xmlns="http://www.w3.org/2000/svg" version="1.1">
 <metadata>
  <rdf:RDF xmlns:dc="http://purl.org/dc/elements/1.1/" xmlns:cc="http://creativecommons.org/ns#" xmlns:rdf="http://www.w3.org/1999/02/22-rdf-syntax-ns#">
   <cc:Work>
    <dc:type rdf:resource="http://purl.org/dc/dcmitype/StillImage"/>
    <dc:format>image/svg+xml</dc:format>
    <dc:creator>
     <cc:Agent>
      <dc:title>EasyViz</dc:title>
     </cc:Agent>
    </dc:creator>
   </cc:Work>
  </rdf:RDF>
 </metadata>
 <defs>
  <style type="text/css">*{stroke-linejoin: round; stroke-linecap: butt}</style>
 </defs>
 <g id="figure_1">
  <g id="patch_1">
   <path d="M 0 198.425197 
L 249.448819 198.425197 
L 249.448819 0 
L 0 0 
z
" style="fill: #ffffff"/>
  </g>
  <g id="easyviz-axes-c733e892ae73784e">
   <g id="patch_2">
    <path d="M 47.453071 165.755906 
L 226.035748 165.755906 
L 226.035748 8.708354 
L 47.453071 8.708354 
z
" style="fill: #ffffff"/>
   </g>
   <g id="matplotlib.axis_1">
    <g id="xtick_1">
     <g id="easyviz-axis-tick-55fa9a7ca5a5ee6b">
      <defs>
       <path id="me4a8c73573" d="M 0 0 
L 0 3.5 
" style="stroke: #222222; stroke-width: 0.55"/>
      </defs>
      <g>
       <use xlink:href="#me4a8c73573" x="72.964882" y="165.755906" style="fill: #222222; stroke: #222222; stroke-width: 0.55"/>
      </g>
     </g>
     <g id="easyviz-tick-label-5d983dcecf828e06">
      <text style="font-size: 8px; font-family: 'DejaVu Sans'; text-anchor: middle" x="72.964882" y="178.834656" transform="rotate(-0 72.964882 178.834656)">Vehicle</text>
     </g>
    </g>
    <g id="xtick_2">
     <g id="easyviz-axis-tick-d2f9de54ec255438">
      <g>
       <use xlink:href="#me4a8c73573" x="115.484567" y="165.755906" style="fill: #222222; stroke: #222222; stroke-width: 0.55"/>
      </g>
     </g>
     <g id="easyviz-tick-label-92ea1202889afa8b">
      <text style="font-size: 8px; font-family: 'DejaVu Sans'; text-anchor: middle" x="115.484567" y="178.834656" transform="rotate(-0 115.484567 178.834656)">Low dose</text>
     </g>
    </g>
    <g id="xtick_3">
     <g id="easyviz-axis-tick-a369cdb522813c9c">
      <g>
       <use xlink:href="#me4a8c73573" x="158.004252" y="165.755906" style="fill: #222222; stroke: #222222; stroke-width: 0.55"/>
      </g>
     </g>
     <g id="easyviz-tick-label-b281a5203f58abf3">
      <text style="font-size: 8px; font-family: 'DejaVu Sans'; text-anchor: middle" x="158.004252" y="178.834656" transform="rotate(-0 158.004252 178.834656)">High dose</text>
     </g>
    </g>
    <g id="xtick_4">
     <g id="easyviz-axis-tick-8e9950117fc321fa">
      <g>
       <use xlink:href="#me4a8c73573" x="200.523937" y="165.755906" style="fill: #222222; stroke: #222222; stroke-width: 0.55"/>
      </g>
     </g>
     <g id="easyviz-tick-label-865985a3371cdbf9">
      <text style="font-size: 8px; font-family: 'DejaVu Sans'; text-anchor: middle" x="200.523937" y="178.834031" transform="rotate(-0 200.523937 178.834031)">Rescue</text>
     </g>
    </g>
    <g id="easyviz-axis-label-ffb0bed284770937">
     <text style="font-size: 8px; font-family: 'DejaVu Sans'; text-anchor: middle" x="136.744409" y="190.835281" transform="rotate(-0 136.744409 190.835281)">Condition</text>
    </g>
   </g>
   <g id="matplotlib.axis_2">
    <g id="ytick_1">
     <g id="easyviz-axis-tick-7b8c8fd4a49c9682">
      <defs>
       <path id="m3bdcf3bbb8" d="M 0 0 
L -3.5 0 
" style="stroke: #222222; stroke-width: 0.55"/>
      </defs>
      <g>
       <use xlink:href="#m3bdcf3bbb8" x="47.453071" y="165.755906" style="fill: #222222; stroke: #222222; stroke-width: 0.55"/>
      </g>
     </g>
     <g id="easyviz-tick-label-00ea6e4adfc4d4bb">
      <text style="font-size: 8px; font-family: 'DejaVu Sans'; text-anchor: end" x="40.453071" y="168.794968" transform="rotate(-0 40.453071 168.794968)">1</text>
     </g>
    </g>
    <g id="ytick_2">
     <g id="easyviz-axis-tick-bd287d4ddd92159b">
      <g>
       <use xlink:href="#m3bdcf3bbb8" x="47.453071" y="134.346395" style="fill: #222222; stroke: #222222; stroke-width: 0.55"/>
      </g>
     </g>
     <g id="easyviz-tick-label-5a9aa9c621720d22">
      <text style="font-size: 8px; font-family: 'DejaVu Sans'; text-anchor: end" x="40.453071" y="137.385458" transform="rotate(-0 40.453071 137.385458)">2</text>
     </g>
    </g>
    <g id="ytick_3">
     <g id="easyviz-axis-tick-0bbaa9bc49cbe83d">
      <g>
       <use xlink:href="#m3bdcf3bbb8" x="47.453071" y="102.936885" style="fill: #222222; stroke: #222222; stroke-width: 0.55"/>
      </g>
     </g>
     <g id="easyviz-tick-label-a95435e8b688ce33">
      <text style="font-size: 8px; font-family: 'DejaVu Sans'; text-anchor: end" x="40.453071" y="105.975947" transform="rotate(-0 40.453071 105.975947)">3</text>
     </g>
    </g>
    <g id="ytick_4">
     <g id="easyviz-axis-tick-813f58dfce7a30f9">
      <g>
       <use xlink:href="#m3bdcf3bbb8" x="47.453071" y="71.527375" style="fill: #222222; stroke: #222222; stroke-width: 0.55"/>
      </g>
     </g>
     <g id="easyviz-tick-label-e500f07c8d8d5e1f">
      <text style="font-size: 8px; font-family: 'DejaVu Sans'; text-anchor: end" x="40.453071" y="74.566437" transform="rotate(-0 40.453071 74.566437)">4</text>
     </g>
    </g>
    <g id="ytick_5">
     <g id="easyviz-axis-tick-23f8ddcc854605f8">
      <g>
       <use xlink:href="#m3bdcf3bbb8" x="47.453071" y="40.117864" style="fill: #222222; stroke: #222222; stroke-width: 0.55"/>
      </g>
     </g>
     <g id="easyviz-tick-label-4ba416968e7ffc2d">
      <text style="font-size: 8px; font-family: 'DejaVu Sans'; text-anchor: end" x="40.453071" y="43.156927" transform="rotate(-0 40.453071 43.156927)">5</text>
     </g>
    </g>
    <g id="ytick_6">
     <g id="easyviz-axis-tick-b279e7150157534f">
      <g>
       <use xlink:href="#m3bdcf3bbb8" x="47.453071" y="8.708354" style="fill: #222222; stroke: #222222; stroke-width: 0.55"/>
      </g>
     </g>
     <g id="easyviz-tick-label-4c3e3655610f1f10">
      <text style="font-size: 8px; font-family: 'DejaVu Sans'; text-anchor: end" x="40.453071" y="11.747416" transform="rotate(-0 40.453071 11.747416)">6</text>
     </g>
    </g>
    <g id="easyviz-axis-label-5f702097b13456c5">
     <text style="font-size: 8px; font-family: 'DejaVu Sans'; text-anchor: middle" x="29.441196" y="87.23213" transform="rotate(-90 29.441196 87.23213)">Signal (a.u.)</text>
    </g>
   </g>
   <g id="easyviz-distribution-34dbaaeff8263c7e">
    <path d="M 69.563307 131.805366 
L 76.366457 131.805366 
L 76.366457 117.523461 
L 69.563307 117.523461 
L 69.563307 131.805366 
L 69.563307 131.805366 
z
" clip-path="url(#pdc070d9ba6)" style="fill: none; stroke: #333333; stroke-width: 0.75; stroke-linejoin: miter"/>
   </g>
   <g id="line2d_1">
    <path d="M 72.964882 131.805366 
L 72.964882 138.48931 
" clip-path="url(#pdc070d9ba6)" style="fill: none; stroke: #333333; stroke-width: 0.75; stroke-linecap: square"/>
   </g>
   <g id="line2d_2">
    <path d="M 72.964882 117.523461 
L 72.964882 112.654987 
" clip-path="url(#pdc070d9ba6)" style="fill: none; stroke: #333333; stroke-width: 0.75; stroke-linecap: square"/>
   </g>
   <g id="line2d_3">
    <path d="M 71.264094 138.48931 
L 74.665669 138.48931 
" clip-path="url(#pdc070d9ba6)" style="fill: none; stroke: #333333; stroke-width: 0.75; stroke-linecap: square"/>
   </g>
   <g id="line2d_4">
    <path d="M 71.264094 112.654987 
L 74.665669 112.654987 
" clip-path="url(#pdc070d9ba6)" style="fill: none; stroke: #333333; stroke-width: 0.75; stroke-linecap: square"/>
   </g>
   <g id="easyviz-distribution-26437d05b394f556">
    <path d="M 112.082992 104.136728 
L 118.886142 104.136728 
L 118.886142 90.310262 
L 112.082992 90.310262 
L 112.082992 104.136728 
L 112.082992 104.136728 
z
" clip-path="url(#pdc070d9ba6)" style="fill: none; stroke: #333333; stroke-width: 0.75; stroke-linejoin: miter"/>
   </g>
   <g id="line2d_5">
    <path d="M 115.484567 104.136728 
L 115.484567 114.027583 
" clip-path="url(#pdc070d9ba6)" style="fill: none; stroke: #333333; stroke-width: 0.75; stroke-linecap: square"/>
   </g>
   <g id="line2d_6">
    <path d="M 115.484567 90.310262 
L 115.484567 84.386428 
" clip-path="url(#pdc070d9ba6)" style="fill: none; stroke: #333333; stroke-width: 0.75; stroke-linecap: square"/>
   </g>
   <g id="line2d_7">
    <path d="M 113.78378 114.027583 
L 117.185354 114.027583 
" clip-path="url(#pdc070d9ba6)" style="fill: none; stroke: #333333; stroke-width: 0.75; stroke-linecap: square"/>
   </g>
   <g id="line2d_8">
    <path d="M 113.78378 84.386428 
L 117.185354 84.386428 
" clip-path="url(#pdc070d9ba6)" style="fill: none; stroke: #333333; stroke-width: 0.75; stroke-linecap: square"/>
   </g>
   <g id="easyviz-distribution-52cebe3c2cbd17ae">
    <path d="M 154.602677 53.475544 
L 161.405827 53.475544 
L 161.405827 37.020886 
L 154.602677 37.020886 
L 154.602677 53.475544 
L 154.602677 53.475544 
z
" clip-path="url(#pdc070d9ba6)" style="fill: none; stroke: #333333; stroke-width: 0.75; stroke-linejoin: miter"/>
   </g>
   <g id="line2d_9">
    <path d="M 158.004252 53.475544 
L 158.004252 60.631415 
" clip-path="url(#pdc070d9ba6)" style="fill: none; stroke: #333333; stroke-width: 0.75; stroke-linecap: square"/>
   </g>
   <g id="line2d_10">
    <path d="M 158.004252 37.020886 
L 158.004252 30.99026 
" clip-path="url(#pdc070d9ba6)" style="fill: none; stroke: #333333; stroke-width: 0.75; stroke-linecap: square"/>
   </g>
   <g id="line2d_11">
    <path d="M 156.303465 60.631415 
L 159.705039 60.631415 
" clip-path="url(#pdc070d9ba6)" style="fill: none; stroke: #333333; stroke-width: 0.75; stroke-linecap: square"/>
   </g>
   <g id="line2d_12">
    <path d="M 156.303465 30.99026 
L 159.705039 30.99026 
" clip-path="url(#pdc070d9ba6)" style="fill: none; stroke: #333333; stroke-width: 0.75; stroke-linecap: square"/>
   </g>
   <g id="easyviz-distribution-baee82f0f689faac">
    <path d="M 197.122362 112.659699 
L 203.925512 112.659699 
L 203.925512 99.205435 
L 197.122362 99.205435 
L 197.122362 112.659699 
L 197.122362 112.659699 
z
" clip-path="url(#pdc070d9ba6)" style="fill: none; stroke: #333333; stroke-width: 0.75; stroke-linejoin: miter"/>
   </g>
   <g id="line2d_13">
    <path d="M 200.523937 112.659699 
L 200.523937 119.643603 
" clip-path="url(#pdc070d9ba6)" style="fill: none; stroke: #333333; stroke-width: 0.75; stroke-linecap: square"/>
   </g>
   <g id="line2d_14">
    <path d="M 200.523937 99.205435 
L 200.523937 93.809281 
" clip-path="url(#pdc070d9ba6)" style="fill: none; stroke: #333333; stroke-width: 0.75; stroke-linecap: square"/>
   </g>
   <g id="line2d_15">
    <path d="M 198.82315 119.643603 
L 202.224724 119.643603 
" clip-path="url(#pdc070d9ba6)" style="fill: none; stroke: #333333; stroke-width: 0.75; stroke-linecap: square"/>
   </g>
   <g id="line2d_16">
    <path d="M 198.82315 93.809281 
L 202.224724 93.809281 
" clip-path="url(#pdc070d9ba6)" style="fill: none; stroke: #333333; stroke-width: 0.75; stroke-linecap: square"/>
   </g>
   <g id="line2d_17">
    <path d="M 69.563307 119.706422 
L 76.366457 119.706422 
" clip-path="url(#pdc070d9ba6)" style="fill: none; stroke: #333333; stroke-width: 0.75"/>
   </g>
   <g id="line2d_18">
    <path d="M 112.082992 93.963188 
L 118.886142 93.963188 
" clip-path="url(#pdc070d9ba6)" style="fill: none; stroke: #333333; stroke-width: 0.75"/>
   </g>
   <g id="line2d_19">
    <path d="M 154.602677 41.98673 
L 161.405827 41.98673 
" clip-path="url(#pdc070d9ba6)" style="fill: none; stroke: #333333; stroke-width: 0.75"/>
   </g>
   <g id="line2d_20">
    <path d="M 197.122362 102.123379 
L 203.925512 102.123379 
" clip-path="url(#pdc070d9ba6)" style="fill: none; stroke: #333333; stroke-width: 0.75"/>
   </g>
   <g id="easyviz-axis-line-a25b05ec84419760">
    <path d="M 47.453071 165.755906 
L 47.453071 8.708354 
" style="fill: none; stroke: #222222; stroke-width: 0.55; stroke-linejoin: miter; stroke-linecap: square"/>
   </g>
   <g id="easyviz-axis-line-583586e852f58ad3">
    <path d="M 47.453071 165.755906 
L 226.035748 165.755906 
" style="fill: none; stroke: #222222; stroke-width: 0.55; stroke-linejoin: miter; stroke-linecap: square"/>
   </g>
   <g id="easyviz-point-group-e4f895c7b6a3898f">
    <defs>
     <path id="m0e73d396f3" d="M 0 1.5 
C 0.397805 1.5 0.77937 1.341951 1.06066 1.06066 
C 1.341951 0.77937 1.5 0.397805 1.5 0 
C 1.5 -0.397805 1.341951 -0.77937 1.06066 -1.06066 
C 0.77937 -1.341951 0.397805 -1.5 0 -1.5 
C -0.397805 -1.5 -0.77937 -1.341951 -1.06066 -1.06066 
C -1.341951 -0.77937 -1.5 -0.397805 -1.5 0 
C -1.5 0.397805 -1.341951 0.77937 -1.06066 1.06066 
C -0.77937 1.341951 -0.397805 1.5 0 1.5 
z
"/>
    </defs>
    <g clip-path="url(#pdc070d9ba6)">
     <use xlink:href="#m0e73d396f3" x="81.495952" y="131.205444" style="fill: #2581b9"/>
     <use xlink:href="#m0e73d396f3" x="88.942823" y="118.578821" style="fill: #2581b9"/>
     <use xlink:href="#m0e73d396f3" x="84.292466" y="112.654987" style="fill: #2581b9"/>
     <use xlink:href="#m0e73d396f3" x="86.547724" y="115.064097" style="fill: #2581b9"/>
     <use xlink:href="#m0e73d396f3" x="82.184707" y="136.208979" style="fill: #2581b9"/>
     <use xlink:href="#m0e73d396f3" x="84.570098" y="138.48931" style="fill: #2581b9"/>
     <use xlink:href="#m0e73d396f3" x="84.570098" y="132.405287" style="fill: #2581b9"/>
     <use xlink:href="#m0e73d396f3" x="82.445778" y="119.706422" style="fill: #2581b9"/>
     <use xlink:href="#m0e73d396f3" x="84.570098" y="122.231747" style="fill: #2581b9"/>
     <use xlink:href="#m0e73d396f3" x="83.561293" y="116.468102" style="fill: #2581b9"/>
     <use xlink:href="#m0e73d396f3" x="85.670588" y="119.00599" style="fill: #2581b9"/>
    </g>
   </g>
   <g id="easyviz-point-group-2a3e3559c6e4634c">
    <defs>
     <path id="m033ec24591" d="M 0 1.5 
C 0.397805 1.5 0.77937 1.341951 1.06066 1.06066 
C 1.341951 0.77937 1.5 0.397805 1.5 0 
C 1.5 -0.397805 1.341951 -0.77937 1.06066 -1.06066 
C 0.77937 -1.341951 0.397805 -1.5 0 -1.5 
C -0.397805 -1.5 -0.77937 -1.341951 -1.06066 -1.06066 
C -1.341951 -0.77937 -1.5 -0.397805 -1.5 0 
C -1.5 0.397805 -1.341951 0.77937 -1.06066 1.06066 
C -0.77937 1.341951 -0.397805 1.5 0 1.5 
z
"/>
    </defs>
    <g clip-path="url(#pdc070d9ba6)">
     <use xlink:href="#m033ec24591" x="130.16393" y="102.936885" style="fill: #df9a3c"/>
     <use xlink:href="#m033ec24591" x="123.545666" y="90.310262" style="fill: #df9a3c"/>
     <use xlink:href="#m033ec24591" x="127.089783" y="84.386428" style="fill: #df9a3c"/>
     <use xlink:href="#m033ec24591" x="124.295651" y="86.795537" style="fill: #df9a3c"/>
     <use xlink:href="#m033ec24591" x="124.704392" y="107.94042" style="fill: #df9a3c"/>
     <use xlink:href="#m033ec24591" x="127.089783" y="110.22075" style="fill: #df9a3c"/>
     <use xlink:href="#m033ec24591" x="127.089783" y="104.136728" style="fill: #df9a3c"/>
     <use xlink:href="#m033ec24591" x="126.647039" y="91.437863" style="fill: #df9a3c"/>
     <use xlink:href="#m033ec24591" x="128.771359" y="93.963188" style="fill: #df9a3c"/>
     <use xlink:href="#m033ec24591" x="127.282082" y="88.199543" style="fill: #df9a3c"/>
     <use xlink:href="#m033ec24591" x="129.871848" y="90.737431" style="fill: #df9a3c"/>
     <use xlink:href="#m033ec24591" x="127.089783" y="96.802607" style="fill: #df9a3c"/>
     <use xlink:href="#m033ec24591" x="127.089783" y="114.027583" style="fill: #df9a3c"/>
    </g>
   </g>
   <g id="easyviz-point-group-795a0cc7dd69a371">
    <defs>
     <path id="m6d5e7aa593" d="M 0 1.5 
C 0.397805 1.5 0.77937 1.341951 1.06066 1.06066 
C 1.341951 0.77937 1.5 0.397805 1.5 0 
C 1.5 -0.397805 1.341951 -0.77937 1.06066 -1.06066 
C 0.77937 -1.341951 0.397805 -1.5 0 -1.5 
C -0.397805 -1.5 -0.77937 -1.341951 -1.06066 -1.06066 
C -1.341951 -0.77937 -1.5 -0.397805 -1.5 0 
C -1.5 0.397805 -1.341951 0.77937 -1.06066 1.06066 
C -0.77937 1.341951 -0.397805 1.5 0 1.5 
z
"/>
    </defs>
    <g clip-path="url(#pdc070d9ba6)">
     <use xlink:href="#m6d5e7aa593" x="166.535322" y="49.540717" style="fill: #1aa781"/>
     <use xlink:href="#m6d5e7aa593" x="166.065351" y="36.914094" style="fill: #1aa781"/>
     <use xlink:href="#m6d5e7aa593" x="169.609469" y="30.99026" style="fill: #1aa781"/>
     <use xlink:href="#m6d5e7aa593" x="166.815336" y="33.39937" style="fill: #1aa781"/>
     <use xlink:href="#m6d5e7aa593" x="171.99486" y="54.544252" style="fill: #1aa781"/>
     <use xlink:href="#m6d5e7aa593" x="169.609469" y="56.824583" style="fill: #1aa781"/>
     <use xlink:href="#m6d5e7aa593" x="169.609469" y="50.740561" style="fill: #1aa781"/>
     <use xlink:href="#m6d5e7aa593" x="169.166724" y="38.041696" style="fill: #1aa781"/>
     <use xlink:href="#m6d5e7aa593" x="171.291044" y="40.56702" style="fill: #1aa781"/>
     <use xlink:href="#m6d5e7aa593" x="169.801767" y="34.803375" style="fill: #1aa781"/>
     <use xlink:href="#m6d5e7aa593" x="172.391533" y="37.341263" style="fill: #1aa781"/>
     <use xlink:href="#m6d5e7aa593" x="169.609469" y="43.40644" style="fill: #1aa781"/>
     <use xlink:href="#m6d5e7aa593" x="169.609469" y="60.631415" style="fill: #1aa781"/>
     <use xlink:href="#m6d5e7aa593" x="167.384791" y="54.387205" style="fill: #1aa781"/>
    </g>
   </g>
   <g id="easyviz-point-group-016ad4d8c5a3f205">
    <defs>
     <path id="mbaec0d2929" d="M 0 1.5 
C 0.397805 1.5 0.77937 1.341951 1.06066 1.06066 
C 1.341951 0.77937 1.5 0.397805 1.5 0 
C 1.5 -0.397805 1.341951 -0.77937 1.06066 -1.06066 
C 0.77937 -1.341951 0.397805 -1.5 0 -1.5 
C -0.397805 -1.5 -0.77937 -1.341951 -1.06066 -1.06066 
C -1.341951 -0.77937 -1.5 -0.397805 -1.5 0 
C -1.5 0.397805 -1.341951 0.77937 -1.06066 1.06066 
C -0.77937 1.341951 -0.397805 1.5 0 1.5 
z
"/>
    </defs>
    <g clip-path="url(#pdc070d9ba6)">
     <use xlink:href="#mbaec0d2929" x="209.055007" y="112.359738" style="fill: #cc86b9"/>
     <use xlink:href="#mbaec0d2929" x="215.673271" y="99.733115" style="fill: #cc86b9"/>
     <use xlink:href="#mbaec0d2929" x="212.129154" y="93.809281" style="fill: #cc86b9"/>
     <use xlink:href="#mbaec0d2929" x="214.923286" y="96.218391" style="fill: #cc86b9"/>
     <use xlink:href="#mbaec0d2929" x="209.743762" y="117.363273" style="fill: #cc86b9"/>
     <use xlink:href="#mbaec0d2929" x="212.129154" y="119.643603" style="fill: #cc86b9"/>
     <use xlink:href="#mbaec0d2929" x="212.129154" y="113.559581" style="fill: #cc86b9"/>
     <use xlink:href="#mbaec0d2929" x="212.571898" y="100.860716" style="fill: #cc86b9"/>
     <use xlink:href="#mbaec0d2929" x="210.447578" y="103.386041" style="fill: #cc86b9"/>
     <use xlink:href="#mbaec0d2929" x="211.936855" y="97.622396" style="fill: #cc86b9"/>
     <use xlink:href="#mbaec0d2929" x="209.347089" y="100.160284" style="fill: #cc86b9"/>
     <use xlink:href="#mbaec0d2929" x="212.129154" y="106.225461" style="fill: #cc86b9"/>
    </g>
   </g>
  </g>
 </g>
 <defs>
  <clipPath id="pdc070d9ba6">
   <rect x="47.453071" y="8.708354" width="178.582677" height="157.047552"/>
  </clipPath>
 </defs>
</svg>
