<?xml version="1.0" encoding="utf-8" standalone="no"?>
<!DOCTYPE svg PUBLIC "-//W3C//DTD SVG 1.1//EN"
  "http://www.w3.org/Graphics/SVG/1.1/DTD/svg11.dtd">
<svg xmlns:xlink="http://www.w3.org/1999/xlink" width="249.448819pt" height="198.425197pt" viewBox="0 0 249.448819 198.425197" xmlns="http://www.w3.org/2000/svg" version="1.1">
 <metadata>
  <rdf:RDF xmlns:dc="http://purl.org/dc/elements/1.1/" xmlns:cc="http://creativecommons.org/ns#" xmlns:rdf="http://www.w3.org/1999/02/22-rdf-syntax-ns#">
   <cc:Work>
    <dc:type rdf:resource="http://purl.org/dc/dcmitype/StillImage"/>
    <dc:format>image/svg+xml</dc:format>
    <dc:creator>
     <cc:Agent>
      <dc:title>EasyViz</dc:title>
     </cc:Agent>
    </dc:creator>
   </cc:Work>
  </rdf:RDF>
 </metadata>
 <defs>
  <style type="text/css">*{stroke-linejoin: round; stroke-linecap: butt}</style>
 </defs>
 <g id="figure_1">
  <g id="patch_1">
   <path d="M 0 198.425197 
L 249.448819 198.425197 
L 249.448819 0 
L 0 0 
z
" style="fill: #ffffff"/>
  </g>
  <g id="axes_1">
   <g id="patch_2">
    <path d="M 96.189291 166.740281 
L 243.779528 166.740281 
L 243.779528 5.669291 
L 96.189291 5.669291 
z
" style="fill: #ffffff"/>
   </g>
   <g id="matplotlib.axis_1">
    <g id="xtick_1">
     <g id="line2d_1">
      <defs>
       <path id="m4a1f4d3a17" d="M 0 0 
L 0 3.5 
" style="stroke: #000000; stroke-width: 0.6"/>
      </defs>
      <g>
       <use xlink:href="#m4a1f4d3a17" x="122.881143" y="166.740281" style="stroke: #000000; stroke-width: 0.6"/>
      </g>
     </g>
     <g id="text_1">
      <text style="font-size: 8px; font-family: 'Arial'; text-anchor: middle" x="122.881143" y="179.564499" transform="rotate(-0 122.881143 179.564499)">0.0</text>
     </g>
    </g>
    <g id="xtick_2">
     <g id="line2d_2">
      <g>
       <use xlink:href="#m4a1f4d3a17" x="170.4602" y="166.740281" style="stroke: #000000; stroke-width: 0.6"/>
      </g>
     </g>
     <g id="text_2">
      <text style="font-size: 8px; font-family: 'Arial'; text-anchor: middle" x="170.4602" y="179.564499" transform="rotate(-0 170.4602 179.564499)">0.5</text>
     </g>
    </g>
    <g id="xtick_3">
     <g id="line2d_3">
      <g>
       <use xlink:href="#m4a1f4d3a17" x="218.039257" y="166.740281" style="stroke: #000000; stroke-width: 0.6"/>
      </g>
     </g>
     <g id="text_3">
      <text style="font-size: 8px; font-family: 'Arial'; text-anchor: middle" x="218.039257" y="179.564499" transform="rotate(-0 218.039257 179.564499)">1.0</text>
     </g>
    </g>
    <g id="text_4">
     <text style="font-size: 8px; font-family: 'Arial'; text-anchor: middle" x="169.984409" y="191.072312" transform="rotate(-0 169.984409 191.072312)">Prepared score (a.u.)</text>
    </g>
   </g>
   <g id="matplotlib.axis_2">
    <g id="ytick_1">
     <g id="line2d_4">
      <defs>
       <path id="me4ba3097ba" d="M 0 0 
L -3.5 0 
" style="stroke: #000000; stroke-width: 0.6"/>
      </defs>
      <g>
       <use xlink:href="#me4ba3097ba" x="96.189291" y="28.679433" style="stroke: #000000; stroke-width: 0.6"/>
      </g>
     </g>
     <g id="text_5">
      <text style="font-size: 8px; font-family: 'Arial'; text-anchor: end" x="89.189291" y="31.591542" transform="rotate(-0 89.189291 31.591542)">Resident macrophages</text>
     </g>
    </g>
    <g id="ytick_2">
     <g id="line2d_5">
      <g>
       <use xlink:href="#me4ba3097ba" x="96.189291" y="67.029668" style="stroke: #000000; stroke-width: 0.6"/>
      </g>
     </g>
     <g id="text_6">
      <text style="font-size: 8px; font-family: 'Arial'; text-anchor: end" x="89.189291" y="69.941778" transform="rotate(-0 89.189291 69.941778)">Activated monocytes</text>
     </g>
    </g>
    <g id="ytick_3">
     <g id="line2d_6">
      <g>
       <use xlink:href="#me4ba3097ba" x="96.189291" y="105.379904" style="stroke: #000000; stroke-width: 0.6"/>
      </g>
     </g>
     <g id="text_7">
      <text style="font-size: 8px; font-family: 'Arial'; text-anchor: end" x="89.189291" y="108.292013" transform="rotate(-0 89.189291 108.292013)">Interferon macrophages</text>
     </g>
    </g>
    <g id="ytick_4">
     <g id="line2d_7">
      <g>
       <use xlink:href="#me4ba3097ba" x="96.189291" y="143.730139" style="stroke: #000000; stroke-width: 0.6"/>
      </g>
     </g>
     <g id="text_8">
      <text style="font-size: 8px; font-family: 'Arial'; text-anchor: end" x="89.189291" y="146.642249" transform="rotate(-0 89.189291 146.642249)">Antigen-presenting cells</text>
     </g>
    </g>
   </g>
   <g id="patch_3">
    <path d="M 115.030598 19.091874 
L 115.030598 38.266992 
L 139.295917 38.266992 
L 139.295917 19.091874 
L 115.030598 19.091874 
z
" clip-path="url(#p6ffc1a9dd6)" style="fill: #29acf3; fill-opacity: 0.22; stroke: #29acf3; stroke-width: 0.6; stroke-linejoin: miter"/>
   </g>
   <g id="line2d_8">
    <path d="M 115.030598 28.679433 
L 102.897938 28.679433 
" clip-path="url(#p6ffc1a9dd6)" style="fill: none; stroke: #000000; stroke-width: 0.6; stroke-linecap: square"/>
   </g>
   <g id="line2d_9">
    <path d="M 139.295917 28.679433 
L 151.428577 28.679433 
" clip-path="url(#p6ffc1a9dd6)" style="fill: none; stroke: #000000; stroke-width: 0.6; stroke-linecap: square"/>
   </g>
   <g id="line2d_10">
    <path d="M 102.897938 23.885653 
L 102.897938 33.473212 
" clip-path="url(#p6ffc1a9dd6)" style="fill: none; stroke: #000000; stroke-width: 0.6; stroke-linecap: square"/>
   </g>
   <g id="line2d_11">
    <path d="M 151.428577 23.885653 
L 151.428577 33.473212 
" clip-path="url(#p6ffc1a9dd6)" style="fill: none; stroke: #000000; stroke-width: 0.6; stroke-linecap: square"/>
   </g>
   <g id="patch_4">
    <path d="M 143.578033 57.442109 
L 143.578033 76.617227 
L 167.843352 76.617227 
L 167.843352 57.442109 
L 143.578033 57.442109 
z
" clip-path="url(#p6ffc1a9dd6)" style="fill: #e47751; fill-opacity: 0.22; stroke: #e47751; stroke-width: 0.6; stroke-linejoin: miter"/>
   </g>
   <g id="line2d_12">
    <path d="M 143.578033 67.029668 
L 131.445373 67.029668 
" clip-path="url(#p6ffc1a9dd6)" style="fill: none; stroke: #000000; stroke-width: 0.6; stroke-linecap: square"/>
   </g>
   <g id="line2d_13">
    <path d="M 167.843352 67.029668 
L 179.976012 67.029668 
" clip-path="url(#p6ffc1a9dd6)" style="fill: none; stroke: #000000; stroke-width: 0.6; stroke-linecap: square"/>
   </g>
   <g id="line2d_14">
    <path d="M 131.445373 62.235889 
L 131.445373 71.823448 
" clip-path="url(#p6ffc1a9dd6)" style="fill: none; stroke: #000000; stroke-width: 0.6; stroke-linecap: square"/>
   </g>
   <g id="line2d_15">
    <path d="M 179.976012 62.235889 
L 179.976012 71.823448 
" clip-path="url(#p6ffc1a9dd6)" style="fill: none; stroke: #000000; stroke-width: 0.6; stroke-linecap: square"/>
   </g>
   <g id="patch_5">
    <path d="M 172.125467 95.792345 
L 172.125467 114.967463 
L 196.390786 114.967463 
L 196.390786 95.792345 
L 172.125467 95.792345 
z
" clip-path="url(#p6ffc1a9dd6)" style="fill: #007f7f; fill-opacity: 0.22; stroke: #007f7f; stroke-width: 0.6; stroke-linejoin: miter"/>
   </g>
   <g id="line2d_16">
    <path d="M 172.125467 105.379904 
L 159.992807 105.379904 
" clip-path="url(#p6ffc1a9dd6)" style="fill: none; stroke: #000000; stroke-width: 0.6; stroke-linecap: square"/>
   </g>
   <g id="line2d_17">
    <path d="M 196.390786 105.379904 
L 208.523446 105.379904 
" clip-path="url(#p6ffc1a9dd6)" style="fill: none; stroke: #000000; stroke-width: 0.6; stroke-linecap: square"/>
   </g>
   <g id="line2d_18">
    <path d="M 159.992807 100.586124 
L 159.992807 110.173683 
" clip-path="url(#p6ffc1a9dd6)" style="fill: none; stroke: #000000; stroke-width: 0.6; stroke-linecap: square"/>
   </g>
   <g id="line2d_19">
    <path d="M 208.523446 100.586124 
L 208.523446 110.173683 
" clip-path="url(#p6ffc1a9dd6)" style="fill: none; stroke: #000000; stroke-width: 0.6; stroke-linecap: square"/>
   </g>
   <g id="patch_6">
    <path d="M 200.672902 134.14258 
L 200.672902 153.317698 
L 224.938221 153.317698 
L 224.938221 134.14258 
L 200.672902 134.14258 
z
" clip-path="url(#p6ffc1a9dd6)" style="fill: #a37fff; fill-opacity: 0.22; stroke: #a37fff; stroke-width: 0.6; stroke-linejoin: miter"/>
   </g>
   <g id="line2d_20">
    <path d="M 200.672902 143.730139 
L 188.540242 143.730139 
" clip-path="url(#p6ffc1a9dd6)" style="fill: none; stroke: #000000; stroke-width: 0.6; stroke-linecap: square"/>
   </g>
   <g id="line2d_21">
    <path d="M 224.938221 143.730139 
L 237.07088 143.730139 
" clip-path="url(#p6ffc1a9dd6)" style="fill: none; stroke: #000000; stroke-width: 0.6; stroke-linecap: square"/>
   </g>
   <g id="line2d_22">
    <path d="M 188.540242 138.93636 
L 188.540242 148.523919 
" clip-path="url(#p6ffc1a9dd6)" style="fill: none; stroke: #000000; stroke-width: 0.6; stroke-linecap: square"/>
   </g>
   <g id="line2d_23">
    <path d="M 237.07088 138.93636 
L 237.07088 148.523919 
" clip-path="url(#p6ffc1a9dd6)" style="fill: none; stroke: #000000; stroke-width: 0.6; stroke-linecap: square"/>
   </g>
   <g id="line2d_24">
    <path d="M 127.163258 19.091874 
L 127.163258 38.266992 
" clip-path="url(#p6ffc1a9dd6)" style="fill: none; stroke: #222222; stroke-width: 0.6"/>
   </g>
   <g id="line2d_25">
    <path d="M 155.710692 57.442109 
L 155.710692 76.617227 
" clip-path="url(#p6ffc1a9dd6)" style="fill: none; stroke: #222222; stroke-width: 0.6"/>
   </g>
   <g id="line2d_26">
    <path d="M 184.258127 95.792345 
L 184.258127 114.967463 
" clip-path="url(#p6ffc1a9dd6)" style="fill: none; stroke: #222222; stroke-width: 0.6"/>
   </g>
   <g id="line2d_27">
    <path d="M 212.805561 134.14258 
L 212.805561 153.317698 
" clip-path="url(#p6ffc1a9dd6)" style="fill: none; stroke: #222222; stroke-width: 0.6"/>
   </g>
   <g id="patch_7">
    <path d="M 96.189291 166.740281 
L 96.189291 5.669291 
" style="fill: none; stroke: #000000; stroke-width: 0.6; stroke-linejoin: miter; stroke-linecap: square"/>
   </g>
   <g id="patch_8">
    <path d="M 96.189291 166.740281 
L 243.779528 166.740281 
" style="fill: none; stroke: #000000; stroke-width: 0.6; stroke-linejoin: miter; stroke-linecap: square"/>
   </g>
   <g id="PathCollection_1">
    <defs>
     <path id="me62604a2ec" d="M 0 1.5 
C 0.397805 1.5 0.77937 1.341951 1.06066 1.06066 
C 1.341951 0.77937 1.5 0.397805 1.5 0 
C 1.5 -0.397805 1.341951 -0.77937 1.06066 -1.06066 
C 0.77937 -1.341951 0.397805 -1.5 0 -1.5 
C -0.397805 -1.5 -0.77937 -1.341951 -1.06066 -1.06066 
C -1.341951 -0.77937 -1.5 -0.397805 -1.5 0 
C -1.5 0.397805 -1.341951 0.77937 -1.06066 1.06066 
C -0.77937 1.341951 -0.397805 1.5 0 1.5 
z
"/>
    </defs>
    <g clip-path="url(#p6ffc1a9dd6)">
     <use xlink:href="#me62604a2ec" x="102.897938" y="30.045086" style="fill: #29acf3; fill-opacity: 0.85"/>
     <use xlink:href="#me62604a2ec" x="111.462169" y="26.383962" style="fill: #29acf3; fill-opacity: 0.85"/>
     <use xlink:href="#me62604a2ec" x="116.220075" y="24.102452" style="fill: #29acf3; fill-opacity: 0.85"/>
     <use xlink:href="#me62604a2ec" x="124.784305" y="23.8587" style="fill: #29acf3; fill-opacity: 0.85"/>
     <use xlink:href="#me62604a2ec" x="129.542211" y="31.803069" style="fill: #29acf3; fill-opacity: 0.85"/>
     <use xlink:href="#me62604a2ec" x="138.106441" y="32.795044" style="fill: #29acf3; fill-opacity: 0.85"/>
     <use xlink:href="#me62604a2ec" x="142.864347" y="29.742704" style="fill: #29acf3; fill-opacity: 0.85"/>
     <use xlink:href="#me62604a2ec" x="151.428577" y="30.967757" style="fill: #29acf3; fill-opacity: 0.85"/>
    </g>
   </g>
   <g id="PathCollection_2">
    <defs>
     <path id="m4ba35a40f7" d="M 0 1.5 
C 0.397805 1.5 0.77937 1.341951 1.06066 1.06066 
C 1.341951 0.77937 1.5 0.397805 1.5 0 
C 1.5 -0.397805 1.341951 -0.77937 1.06066 -1.06066 
C 0.77937 -1.341951 0.397805 -1.5 0 -1.5 
C -0.397805 -1.5 -0.77937 -1.341951 -1.06066 -1.06066 
C -1.341951 -0.77937 -1.5 -0.397805 -1.5 0 
C -1.5 0.397805 -1.341951 0.77937 -1.06066 1.06066 
C -0.77937 1.341951 -0.397805 1.5 0 1.5 
z
"/>
    </defs>
    <g clip-path="url(#p6ffc1a9dd6)">
     <use xlink:href="#m4ba35a40f7" x="131.445373" y="67.464656" style="fill: #e47751; fill-opacity: 0.85"/>
     <use xlink:href="#m4ba35a40f7" x="140.009603" y="71.367802" style="fill: #e47751; fill-opacity: 0.85"/>
     <use xlink:href="#m4ba35a40f7" x="144.767509" y="70.179063" style="fill: #e47751; fill-opacity: 0.85"/>
     <use xlink:href="#m4ba35a40f7" x="153.331739" y="62.071443" style="fill: #e47751; fill-opacity: 0.85"/>
     <use xlink:href="#m4ba35a40f7" x="158.089645" y="70.593368" style="fill: #e47751; fill-opacity: 0.85"/>
     <use xlink:href="#m4ba35a40f7" x="166.653875" y="62.379021" style="fill: #e47751; fill-opacity: 0.85"/>
     <use xlink:href="#m4ba35a40f7" x="171.411781" y="69.319577" style="fill: #e47751; fill-opacity: 0.85"/>
     <use xlink:href="#m4ba35a40f7" x="179.976012" y="63.79561" style="fill: #e47751; fill-opacity: 0.85"/>
    </g>
   </g>
   <g id="PathCollection_3">
    <defs>
     <path id="m95675b1c19" d="M 0 1.5 
C 0.397805 1.5 0.77937 1.341951 1.06066 1.06066 
C 1.341951 0.77937 1.5 0.397805 1.5 0 
C 1.5 -0.397805 1.341951 -0.77937 1.06066 -1.06066 
C 0.77937 -1.341951 0.397805 -1.5 0 -1.5 
C -0.397805 -1.5 -0.77937 -1.341951 -1.06066 -1.06066 
C -1.341951 -0.77937 -1.5 -0.397805 -1.5 0 
C -1.5 0.397805 -1.341951 0.77937 -1.06066 1.06066 
C -0.77937 1.341951 -0.397805 1.5 0 1.5 
z
"/>
    </defs>
    <g clip-path="url(#p6ffc1a9dd6)">
     <use xlink:href="#m95675b1c19" x="159.992807" y="109.001183" style="fill: #007f7f; fill-opacity: 0.85"/>
     <use xlink:href="#m95675b1c19" x="168.557038" y="105.793316" style="fill: #007f7f; fill-opacity: 0.85"/>
     <use xlink:href="#m95675b1c19" x="173.314943" y="103.382819" style="fill: #007f7f; fill-opacity: 0.85"/>
     <use xlink:href="#m95675b1c19" x="181.879174" y="104.609013" style="fill: #007f7f; fill-opacity: 0.85"/>
     <use xlink:href="#m95675b1c19" x="186.63708" y="100.67675" style="fill: #007f7f; fill-opacity: 0.85"/>
     <use xlink:href="#m95675b1c19" x="195.20131" y="101.633609" style="fill: #007f7f; fill-opacity: 0.85"/>
     <use xlink:href="#m95675b1c19" x="199.959216" y="107.08121" style="fill: #007f7f; fill-opacity: 0.85"/>
     <use xlink:href="#m95675b1c19" x="208.523446" y="106.847539" style="fill: #007f7f; fill-opacity: 0.85"/>
    </g>
   </g>
   <g id="PathCollection_4">
    <defs>
     <path id="m45ebde3c64" d="M 0 1.5 
C 0.397805 1.5 0.77937 1.341951 1.06066 1.06066 
C 1.341951 0.77937 1.5 0.397805 1.5 0 
C 1.5 -0.397805 1.341951 -0.77937 1.06066 -1.06066 
C 0.77937 -1.341951 0.397805 -1.5 0 -1.5 
C -0.397805 -1.5 -0.77937 -1.341951 -1.06066 -1.06066 
C -1.341951 -0.77937 -1.5 -0.397805 -1.5 0 
C -1.5 0.397805 -1.341951 0.77937 -1.06066 1.06066 
C -0.77937 1.341951 -0.397805 1.5 0 1.5 
z
"/>
    </defs>
    <g clip-path="url(#p6ffc1a9dd6)">
     <use xlink:href="#m45ebde3c64" x="188.540242" y="144.880651" style="fill: #a37fff; fill-opacity: 0.85"/>
     <use xlink:href="#m45ebde3c64" x="197.104472" y="142.570281" style="fill: #a37fff; fill-opacity: 0.85"/>
     <use xlink:href="#m45ebde3c64" x="201.862378" y="148.68785" style="fill: #a37fff; fill-opacity: 0.85"/>
     <use xlink:href="#m45ebde3c64" x="210.426608" y="148.524578" style="fill: #a37fff; fill-opacity: 0.85"/>
     <use xlink:href="#m45ebde3c64" x="215.184514" y="145.58019" style="fill: #a37fff; fill-opacity: 0.85"/>
     <use xlink:href="#m45ebde3c64" x="223.748744" y="145.230378" style="fill: #a37fff; fill-opacity: 0.85"/>
     <use xlink:href="#m45ebde3c64" x="228.50665" y="145.609153" style="fill: #a37fff; fill-opacity: 0.85"/>
     <use xlink:href="#m45ebde3c64" x="237.07088" y="142.622568" style="fill: #a37fff; fill-opacity: 0.85"/>
    </g>
   </g>
  </g>
 </g>
 <defs>
  <clipPath id="p6ffc1a9dd6">
   <rect x="96.189291" y="5.669291" width="147.590236" height="161.070989"/>
  </clipPath>
 </defs>
</svg>
