<?xml version="1.0" encoding="utf-8" standalone="no"?>
<!DOCTYPE svg PUBLIC "-//W3C//DTD SVG 1.1//EN"
  "http://www.w3.org/Graphics/SVG/1.1/DTD/svg11.dtd">
<svg xmlns:xlink="http://www.w3.org/1999/xlink" width="311.811024pt" height="226.771654pt" viewBox="0 0 311.811024 226.771654" xmlns="http://www.w3.org/2000/svg" version="1.1">
 <metadata>
  <rdf:RDF xmlns:dc="http://purl.org/dc/elements/1.1/" xmlns:cc="http://creativecommons.org/ns#" xmlns:rdf="http://www.w3.org/1999/02/22-rdf-syntax-ns#">
   <cc:Work>
    <dc:type rdf:resource="http://purl.org/dc/dcmitype/StillImage"/>
    <dc:format>image/svg+xml</dc:format>
    <dc:creator>
     <cc:Agent>
      <dc:title>EasyViz</dc:title>
     </cc:Agent>
    </dc:creator>
   </cc:Work>
  </rdf:RDF>
 </metadata>
 <defs>
  <style type="text/css">*{stroke-linejoin: round; stroke-linecap: butt}</style>
 </defs>
 <g id="figure_1">
  <g id="patch_1">
   <path d="M 0 226.771654 
L 311.811024 226.771654 
L 311.811024 0 
L 0 0 
z
" style="fill: #ffffff"/>
  </g>
  <g id="easyviz-axes-c733e892ae73784e">
   <g id="patch_2">
    <path d="M 39.297104 162.358575 
L 306.141732 162.358575 
L 306.141732 5.669291 
L 39.297104 5.669291 
z
" style="fill: #ffffff"/>
   </g>
   <g id="matplotlib.axis_1">
    <g id="xtick_1">
     <g id="line2d_1">
      <defs>
       <path id="m4a1f4d3a17" d="M 0 0 
L 0 3.5 
" style="stroke: #000000; stroke-width: 0.6"/>
      </defs>
      <g>
       <use xlink:href="#m4a1f4d3a17" x="39.297104" y="162.358575" style="stroke: #000000; stroke-width: 0.6"/>
      </g>
     </g>
     <g id="text_1">
      <text style="font-size: 8px; font-family: 'Arial'; text-anchor: middle" x="39.297104" y="175.182794" transform="rotate(-0 39.297104 175.182794)">4</text>
     </g>
    </g>
    <g id="xtick_2">
     <g id="line2d_2">
      <g>
       <use xlink:href="#m4a1f4d3a17" x="80.350124" y="162.358575" style="stroke: #000000; stroke-width: 0.6"/>
      </g>
     </g>
     <g id="text_2">
      <text style="font-size: 8px; font-family: 'Arial'; text-anchor: middle" x="80.350124" y="175.182794" transform="rotate(-0 80.350124 175.182794)">6</text>
     </g>
    </g>
    <g id="xtick_3">
     <g id="line2d_3">
      <g>
       <use xlink:href="#m4a1f4d3a17" x="121.403143" y="162.358575" style="stroke: #000000; stroke-width: 0.6"/>
      </g>
     </g>
     <g id="text_3">
      <text style="font-size: 8px; font-family: 'Arial'; text-anchor: middle" x="121.403143" y="175.182794" transform="rotate(-0 121.403143 175.182794)">8</text>
     </g>
    </g>
    <g id="xtick_4">
     <g id="line2d_4">
      <g>
       <use xlink:href="#m4a1f4d3a17" x="162.456163" y="162.358575" style="stroke: #000000; stroke-width: 0.6"/>
      </g>
     </g>
     <g id="text_4">
      <text style="font-size: 8px; font-family: 'Arial'; text-anchor: middle" x="162.456163" y="175.182794" transform="rotate(-0 162.456163 175.182794)">10</text>
     </g>
    </g>
    <g id="xtick_5">
     <g id="line2d_5">
      <g>
       <use xlink:href="#m4a1f4d3a17" x="203.509183" y="162.358575" style="stroke: #000000; stroke-width: 0.6"/>
      </g>
     </g>
     <g id="text_5">
      <text style="font-size: 8px; font-family: 'Arial'; text-anchor: middle" x="203.509183" y="175.182794" transform="rotate(-0 203.509183 175.182794)">12</text>
     </g>
    </g>
    <g id="xtick_6">
     <g id="line2d_6">
      <g>
       <use xlink:href="#m4a1f4d3a17" x="244.562203" y="162.358575" style="stroke: #000000; stroke-width: 0.6"/>
      </g>
     </g>
     <g id="text_6">
      <text style="font-size: 8px; font-family: 'Arial'; text-anchor: middle" x="244.562203" y="175.182794" transform="rotate(-0 244.562203 175.182794)">14</text>
     </g>
    </g>
    <g id="xtick_7">
     <g id="line2d_7">
      <g>
       <use xlink:href="#m4a1f4d3a17" x="285.615222" y="162.358575" style="stroke: #000000; stroke-width: 0.6"/>
      </g>
     </g>
     <g id="text_7">
      <text style="font-size: 8px; font-family: 'Arial'; text-anchor: middle" x="285.615222" y="175.182794" transform="rotate(-0 285.615222 175.182794)">16</text>
     </g>
    </g>
    <g id="easyviz-axis-label-ffb0bed284770937">
     <text style="font-size: 8px; font-family: 'Arial'; text-anchor: middle" x="172.719418" y="186.690607" transform="rotate(-0 172.719418 186.690607)">Viscosity (mPa·s)</text>
    </g>
   </g>
   <g id="matplotlib.axis_2">
    <g id="ytick_1">
     <g id="line2d_8">
      <defs>
       <path id="me4ba3097ba" d="M 0 0 
L -3.5 0 
" style="stroke: #000000; stroke-width: 0.6"/>
      </defs>
      <g>
       <use xlink:href="#me4ba3097ba" x="39.297104" y="159.34532" style="stroke: #000000; stroke-width: 0.6"/>
      </g>
     </g>
     <g id="text_8">
      <text style="font-size: 8px; font-family: 'Arial'; text-anchor: end" x="32.297104" y="162.257429" transform="rotate(-0 32.297104 162.257429)">0</text>
     </g>
    </g>
    <g id="ytick_2">
     <g id="line2d_9">
      <g>
       <use xlink:href="#me4ba3097ba" x="39.297104" y="121.679627" style="stroke: #000000; stroke-width: 0.6"/>
      </g>
     </g>
     <g id="text_9">
      <text style="font-size: 8px; font-family: 'Arial'; text-anchor: end" x="32.297104" y="124.591736" transform="rotate(-0 32.297104 124.591736)">0.25</text>
     </g>
    </g>
    <g id="ytick_3">
     <g id="line2d_10">
      <g>
       <use xlink:href="#me4ba3097ba" x="39.297104" y="84.013933" style="stroke: #000000; stroke-width: 0.6"/>
      </g>
     </g>
     <g id="text_10">
      <text style="font-size: 8px; font-family: 'Arial'; text-anchor: end" x="32.297104" y="86.926043" transform="rotate(-0 32.297104 86.926043)">0.5</text>
     </g>
    </g>
    <g id="ytick_4">
     <g id="line2d_11">
      <g>
       <use xlink:href="#me4ba3097ba" x="39.297104" y="46.34824" style="stroke: #000000; stroke-width: 0.6"/>
      </g>
     </g>
     <g id="text_11">
      <text style="font-size: 8px; font-family: 'Arial'; text-anchor: end" x="32.297104" y="49.260349" transform="rotate(-0 32.297104 49.260349)">0.75</text>
     </g>
    </g>
    <g id="ytick_5">
     <g id="line2d_12">
      <g>
       <use xlink:href="#me4ba3097ba" x="39.297104" y="8.682547" style="stroke: #000000; stroke-width: 0.6"/>
      </g>
     </g>
     <g id="text_12">
      <text style="font-size: 8px; font-family: 'Arial'; text-anchor: end" x="32.297104" y="11.594656" transform="rotate(-0 32.297104 11.594656)">1</text>
     </g>
    </g>
    <g id="easyviz-axis-label-5f702097b13456c5">
     <text style="font-size: 8px; font-family: 'Arial'; text-anchor: middle" x="11.04476" y="84.013933" transform="rotate(-90 11.04476 84.013933)">Cumulative fraction</text>
    </g>
   </g>
   <g id="patch_3">
    <path d="M 39.297104 162.358575 
L 39.297104 5.669291 
" style="fill: none; stroke: #000000; stroke-width: 0.6; stroke-linejoin: miter; stroke-linecap: square"/>
   </g>
   <g id="patch_4">
    <path d="M 39.297104 162.358575 
L 306.141732 162.358575 
" style="fill: none; stroke: #000000; stroke-width: 0.6; stroke-linejoin: miter; stroke-linecap: square"/>
   </g>
   <g id="easyviz-ecdf-curve-0">
    <path d="M 39.297104 159.34532 
L 109.087237 159.34532 
L 109.087237 150.482804 
L 113.192539 150.482804 
L 113.192539 141.620288 
L 117.297841 141.620288 
L 117.297841 132.757772 
L 121.403143 132.757772 
L 121.403143 115.03274 
L 125.508445 115.03274 
L 125.508445 106.170223 
L 127.561096 106.170223 
L 127.561096 97.307707 
L 129.613747 97.307707 
L 129.613747 70.720159 
L 133.719049 70.720159 
L 133.719049 61.857643 
L 137.824351 61.857643 
L 137.824351 52.995127 
L 139.877002 52.995127 
L 139.877002 44.132611 
L 141.929653 44.132611 
L 141.929653 35.270095 
L 146.034955 35.270095 
L 146.034955 26.407579 
L 150.140257 26.407579 
L 150.140257 17.545063 
L 154.245559 17.545063 
L 154.245559 8.682547 
L 306.141732 8.682547 
L 306.141732 8.682547 
" clip-path="url(#pfd188005b9)" style="fill: none; stroke: #0072b2; stroke-width: 0.8; stroke-linejoin: miter"/>
   </g>
   <g id="easyviz-ecdf-curve-1">
    <path d="M 39.297104 159.34532 
L 51.61301 159.34532 
L 51.61301 151.4157 
L 59.823614 151.4157 
L 59.823614 143.486081 
L 63.928916 143.486081 
L 63.928916 135.556461 
L 72.13952 135.556461 
L 72.13952 127.626841 
L 80.350124 127.626841 
L 80.350124 119.697222 
L 82.402775 119.697222 
L 82.402775 111.767602 
L 88.560728 111.767602 
L 88.560728 103.837982 
L 100.876633 103.837982 
L 100.876633 95.908363 
L 109.087237 95.908363 
L 109.087237 87.978743 
L 129.613747 87.978743 
L 129.613747 80.049124 
L 135.7717 80.049124 
L 135.7717 72.119504 
L 150.140257 72.119504 
L 150.140257 64.189884 
L 162.456163 64.189884 
L 162.456163 56.260265 
L 172.719418 56.260265 
L 172.719418 48.330645 
L 187.087975 48.330645 
L 187.087975 40.401025 
L 203.509183 40.401025 
L 203.509183 32.471406 
L 211.719787 32.471406 
L 211.719787 24.541786 
L 219.930391 24.541786 
L 219.930391 16.612166 
L 232.246297 16.612166 
L 232.246297 8.682547 
L 306.141732 8.682547 
L 306.141732 8.682547 
" clip-path="url(#pfd188005b9)" style="fill: none; stroke: #d55e00; stroke-width: 0.8; stroke-linejoin: miter"/>
   </g>
   <g id="easyviz-ecdf-curve-2">
    <path d="M 39.297104 159.34532 
L 115.24519 159.34532 
L 115.24519 152.170902 
L 117.297841 152.170902 
L 117.297841 144.996484 
L 119.350492 144.996484 
L 119.350492 137.822067 
L 121.403143 137.822067 
L 121.403143 123.473231 
L 123.455794 123.473231 
L 123.455794 116.298813 
L 125.508445 116.298813 
L 125.508445 101.949978 
L 127.561096 101.949978 
L 127.561096 94.77556 
L 129.613747 94.77556 
L 129.613747 73.252307 
L 131.666398 73.252307 
L 131.666398 66.077889 
L 133.719049 66.077889 
L 133.719049 58.903471 
L 135.7717 58.903471 
L 135.7717 51.729053 
L 137.824351 51.729053 
L 137.824351 44.554636 
L 141.929653 44.554636 
L 141.929653 37.380218 
L 172.719418 37.380218 
L 172.719418 30.2058 
L 203.509183 30.2058 
L 203.509183 23.031382 
L 254.825458 23.031382 
L 254.825458 15.856965 
L 285.615222 15.856965 
L 285.615222 8.682547 
L 306.141732 8.682547 
L 306.141732 8.682547 
" clip-path="url(#pfd188005b9)" style="fill: none; stroke: #009e73; stroke-width: 0.8; stroke-linejoin: miter"/>
   </g>
  </g>
  <g id="easyviz-legend-76ae75855c1e1b13">
   <g id="easyviz-legend-key-3a3d5e544f489cd4">
    <path d="M 138.105855 197.761108 
L 146.609792 197.761108 
L 155.113729 197.761108 
" style="fill: none; stroke: #0072b2; stroke-width: 0.8"/>
   </g>
   <g id="text_13">
    <text style="font-size: 8px; font-family: 'Arial'; text-anchor: start" x="157.097981" y="200.43464" transform="rotate(-0 157.097981 200.43464)">Formulation A</text>
   </g>
   <g id="easyviz-legend-key-f5120bd0db1da547">
    <path d="M 138.105855 206.969708 
L 146.609792 206.969708 
L 155.113729 206.969708 
" style="fill: none; stroke: #d55e00; stroke-width: 0.8"/>
   </g>
   <g id="text_14">
    <text style="font-size: 8px; font-family: 'Arial'; text-anchor: start" x="157.097981" y="209.643239" transform="rotate(-0 157.097981 209.643239)">Formulation B</text>
   </g>
   <g id="easyviz-legend-key-62b157d1dd1bff14">
    <path d="M 138.105855 216.178308 
L 146.609792 216.178308 
L 155.113729 216.178308 
" style="fill: none; stroke: #009e73; stroke-width: 0.8"/>
   </g>
   <g id="text_15">
    <text style="font-size: 8px; font-family: 'Arial'; text-anchor: start" x="157.097981" y="218.851839" transform="rotate(-0 157.097981 218.851839)">Formulation C</text>
   </g>
  </g>
 </g>
 <defs>
  <clipPath id="pfd188005b9">
   <rect x="39.297104" y="5.669291" width="266.844628" height="156.689284"/>
  </clipPath>
 </defs>
</svg>
