<?xml version="1.0" encoding="utf-8" standalone="no"?>
<!DOCTYPE svg PUBLIC "-//W3C//DTD SVG 1.1//EN"
  "http://www.w3.org/Graphics/SVG/1.1/DTD/svg11.dtd">
<svg xmlns:xlink="http://www.w3.org/1999/xlink" width="249.448819pt" height="249.448819pt" viewBox="0 0 249.448819 249.448819" xmlns="http://www.w3.org/2000/svg" version="1.1">
 <metadata>
  <rdf:RDF xmlns:dc="http://purl.org/dc/elements/1.1/" xmlns:cc="http://creativecommons.org/ns#" xmlns:rdf="http://www.w3.org/1999/02/22-rdf-syntax-ns#">
   <cc:Work>
    <dc:type rdf:resource="http://purl.org/dc/dcmitype/StillImage"/>
    <dc:format>image/svg+xml</dc:format>
    <dc:creator>
     <cc:Agent>
      <dc:title>EasyViz</dc:title>
     </cc:Agent>
    </dc:creator>
   </cc:Work>
  </rdf:RDF>
 </metadata>
 <defs>
  <style type="text/css">*{stroke-linejoin: round; stroke-linecap: butt}</style>
 </defs>
 <g id="figure_1">
  <g id="patch_1">
   <path d="M 0 249.448819 
L 249.448819 249.448819 
L 249.448819 0 
L 0 0 
z
" style="fill: #ffffff"/>
  </g>
  <g id="axes_1">
   <g id="patch_2">
    <path d="M 49.889764 199.559055 
L 192.075591 199.559055 
L 192.075591 22.450394 
L 49.889764 22.450394 
z
" style="fill: #ffffff"/>
   </g>
   <g id="matplotlib.axis_1">
    <g id="xtick_1">
     <g id="line2d_1">
      <defs>
       <path id="m4a1f4d3a17" d="M 0 0 
L 0 3.5 
" style="stroke: #000000; stroke-width: 0.6"/>
      </defs>
      <g>
       <use xlink:href="#m4a1f4d3a17" x="69.959055" y="199.559055" style="stroke: #000000; stroke-width: 0.6"/>
      </g>
     </g>
     <g id="text_1">
      <text style="font-size: 8px; font-family: 'Arial'" transform="translate(72.029368 216.344055) rotate(-90)">S1</text>
     </g>
    </g>
    <g id="xtick_2">
     <g id="line2d_2">
      <g>
       <use xlink:href="#m4a1f4d3a17" x="103.974803" y="199.559055" style="stroke: #000000; stroke-width: 0.6"/>
      </g>
     </g>
     <g id="text_2">
      <text style="font-size: 8px; font-family: 'Arial'" transform="translate(106.045116 216.344055) rotate(-90)">S2</text>
     </g>
    </g>
    <g id="xtick_3">
     <g id="line2d_3">
      <g>
       <use xlink:href="#m4a1f4d3a17" x="137.990551" y="199.559055" style="stroke: #000000; stroke-width: 0.6"/>
      </g>
     </g>
     <g id="text_3">
      <text style="font-size: 8px; font-family: 'Arial'" transform="translate(140.060864 216.344055) rotate(-90)">S3</text>
     </g>
    </g>
    <g id="xtick_4">
     <g id="line2d_4">
      <g>
       <use xlink:href="#m4a1f4d3a17" x="172.006299" y="199.559055" style="stroke: #000000; stroke-width: 0.6"/>
      </g>
     </g>
     <g id="text_4">
      <text style="font-size: 8px; font-family: 'Arial'" transform="translate(174.076612 216.344055) rotate(-90)">S4</text>
     </g>
    </g>
    <g id="text_5">
     <text style="font-size: 8px; font-family: 'Arial'; text-anchor: middle" x="120.982677" y="226.168274" transform="rotate(-0 120.982677 226.168274)">Sample</text>
    </g>
   </g>
   <g id="matplotlib.axis_2">
    <g id="ytick_1">
     <g id="line2d_5">
      <defs>
       <path id="me4ba3097ba" d="M 0 0 
L -3.5 0 
" style="stroke: #000000; stroke-width: 0.6"/>
      </defs>
      <g>
       <use xlink:href="#me4ba3097ba" x="49.889764" y="199.559055" style="stroke: #000000; stroke-width: 0.6"/>
      </g>
     </g>
     <g id="text_6">
      <text style="font-size: 8px; font-family: 'Arial'; text-anchor: end" x="42.889764" y="202.471164" transform="rotate(-0 42.889764 202.471164)">0%</text>
     </g>
    </g>
    <g id="ytick_2">
     <g id="line2d_6">
      <g>
       <use xlink:href="#me4ba3097ba" x="49.889764" y="164.137323" style="stroke: #000000; stroke-width: 0.6"/>
      </g>
     </g>
     <g id="text_7">
      <text style="font-size: 8px; font-family: 'Arial'; text-anchor: end" x="42.889764" y="167.049432" transform="rotate(-0 42.889764 167.049432)">20%</text>
     </g>
    </g>
    <g id="ytick_3">
     <g id="line2d_7">
      <g>
       <use xlink:href="#me4ba3097ba" x="49.889764" y="128.715591" style="stroke: #000000; stroke-width: 0.6"/>
      </g>
     </g>
     <g id="text_8">
      <text style="font-size: 8px; font-family: 'Arial'; text-anchor: end" x="42.889764" y="131.6277" transform="rotate(-0 42.889764 131.6277)">40%</text>
     </g>
    </g>
    <g id="ytick_4">
     <g id="line2d_8">
      <g>
       <use xlink:href="#me4ba3097ba" x="49.889764" y="93.293858" style="stroke: #000000; stroke-width: 0.6"/>
      </g>
     </g>
     <g id="text_9">
      <text style="font-size: 8px; font-family: 'Arial'; text-anchor: end" x="42.889764" y="96.205968" transform="rotate(-0 42.889764 96.205968)">60%</text>
     </g>
    </g>
    <g id="ytick_5">
     <g id="line2d_9">
      <g>
       <use xlink:href="#me4ba3097ba" x="49.889764" y="57.872126" style="stroke: #000000; stroke-width: 0.6"/>
      </g>
     </g>
     <g id="text_10">
      <text style="font-size: 8px; font-family: 'Arial'; text-anchor: end" x="42.889764" y="60.784235" transform="rotate(-0 42.889764 60.784235)">80%</text>
     </g>
    </g>
    <g id="ytick_6">
     <g id="line2d_10">
      <g>
       <use xlink:href="#me4ba3097ba" x="49.889764" y="22.450394" style="stroke: #000000; stroke-width: 0.6"/>
      </g>
     </g>
     <g id="text_11">
      <text style="font-size: 8px; font-family: 'Arial'; text-anchor: end" x="42.889764" y="25.362503" transform="rotate(-0 42.889764 25.362503)">100%</text>
     </g>
    </g>
    <g id="text_12">
     <text style="font-size: 8px; font-family: 'Arial'; text-anchor: middle" x="16.746014" y="111.004724" transform="rotate(-90 16.746014 111.004724)">Composition (%)</text>
    </g>
   </g>
   <g id="patch_3">
    <path d="M 56.352756 199.559055 
L 83.565354 199.559055 
L 83.565354 114.888686 
L 56.352756 114.888686 
z
" clip-path="url(#p08f75174d5)" style="fill: #29acf3"/>
   </g>
   <g id="patch_4">
    <path d="M 90.368504 199.559055 
L 117.581102 199.559055 
L 117.581102 143.747502 
L 90.368504 143.747502 
z
" clip-path="url(#p08f75174d5)" style="fill: #29acf3"/>
   </g>
   <g id="patch_5">
    <path d="M 124.384252 199.559055 
L 151.59685 199.559055 
L 151.59685 116.064972 
L 124.384252 116.064972 
z
" clip-path="url(#p08f75174d5)" style="fill: #29acf3"/>
   </g>
   <g id="patch_6">
    <path d="M 158.4 199.559055 
L 185.612598 199.559055 
L 185.612598 152.200329 
L 158.4 152.200329 
z
" clip-path="url(#p08f75174d5)" style="fill: #29acf3"/>
   </g>
   <g id="patch_7">
    <path d="M 56.352756 114.888686 
L 83.565354 114.888686 
L 83.565354 88.477746 
L 56.352756 88.477746 
z
" clip-path="url(#p08f75174d5)" style="fill: #e47751"/>
   </g>
   <g id="patch_8">
    <path d="M 90.368504 143.747502 
L 117.581102 143.747502 
L 117.581102 105.051492 
L 90.368504 105.051492 
z
" clip-path="url(#p08f75174d5)" style="fill: #e47751"/>
   </g>
   <g id="patch_9">
    <path d="M 124.384252 116.064972 
L 151.59685 116.064972 
L 151.59685 67.992621 
L 124.384252 67.992621 
z
" clip-path="url(#p08f75174d5)" style="fill: #e47751"/>
   </g>
   <g id="patch_10">
    <path d="M 158.4 152.200329 
L 185.612598 152.200329 
L 185.612598 78.891615 
L 158.4 78.891615 
z
" clip-path="url(#p08f75174d5)" style="fill: #e47751"/>
   </g>
   <g id="patch_11">
    <path d="M 56.352756 88.477746 
L 83.565354 88.477746 
L 83.565354 22.450394 
L 56.352756 22.450394 
z
" clip-path="url(#p08f75174d5)" style="fill: #007f7f"/>
   </g>
   <g id="patch_12">
    <path d="M 90.368504 105.051492 
L 117.581102 105.051492 
L 117.581102 22.450394 
L 90.368504 22.450394 
z
" clip-path="url(#p08f75174d5)" style="fill: #007f7f"/>
   </g>
   <g id="patch_13">
    <path d="M 124.384252 67.992621 
L 151.59685 67.992621 
L 151.59685 22.450394 
L 124.384252 22.450394 
z
" clip-path="url(#p08f75174d5)" style="fill: #007f7f"/>
   </g>
   <g id="patch_14">
    <path d="M 158.4 78.891615 
L 185.612598 78.891615 
L 185.612598 22.450394 
L 158.4 22.450394 
z
" clip-path="url(#p08f75174d5)" style="fill: #007f7f"/>
   </g>
   <g id="patch_15">
    <path d="M 49.889764 199.559055 
L 49.889764 22.450394 
" style="fill: none; stroke: #000000; stroke-width: 0.6; stroke-linejoin: miter; stroke-linecap: square"/>
   </g>
   <g id="patch_16">
    <path d="M 49.889764 199.559055 
L 192.075591 199.559055 
" style="fill: none; stroke: #000000; stroke-width: 0.6; stroke-linejoin: miter; stroke-linecap: square"/>
   </g>
  </g>
  <g id="legend_1">
   <g id="patch_17">
    <path d="M 198.311811 28.115678 
L 202.56378 28.115678 
L 202.56378 23.86371 
L 198.311811 23.86371 
z
" style="fill: #29acf3"/>
   </g>
   <g id="text_13">
    <text style="font-size: 8px; font-family: 'Arial'; text-anchor: start" x="204.548031" y="28.841542" transform="rotate(-0 204.548031 28.841542)">Type A</text>
   </g>
   <g id="patch_18">
    <path d="M 198.311811 37.324435 
L 202.56378 37.324435 
L 202.56378 33.072466 
L 198.311811 33.072466 
z
" style="fill: #e47751"/>
   </g>
   <g id="text_14">
    <text style="font-size: 8px; font-family: 'Arial'; text-anchor: start" x="204.548031" y="38.050298" transform="rotate(-0 204.548031 38.050298)">Type B</text>
   </g>
   <g id="patch_19">
    <path d="M 198.311811 46.533191 
L 202.56378 46.533191 
L 202.56378 42.281222 
L 198.311811 42.281222 
z
" style="fill: #007f7f"/>
   </g>
   <g id="text_15">
    <text style="font-size: 8px; font-family: 'Arial'; text-anchor: start" x="204.548031" y="47.259054" transform="rotate(-0 204.548031 47.259054)">Type C</text>
   </g>
  </g>
 </g>
 <defs>
  <clipPath id="p08f75174d5">
   <rect x="49.889764" y="22.450394" width="142.185827" height="177.108661"/>
  </clipPath>
 </defs>
</svg>
