<?xml version="1.0" encoding="utf-8" standalone="no"?>
<!DOCTYPE svg PUBLIC "-//W3C//DTD SVG 1.1//EN"
  "http://www.w3.org/Graphics/SVG/1.1/DTD/svg11.dtd">
<svg xmlns:xlink="http://www.w3.org/1999/xlink" width="249.448819pt" height="249.448819pt" viewBox="0 0 249.448819 249.448819" xmlns="http://www.w3.org/2000/svg" version="1.1">
 <metadata>
  <rdf:RDF xmlns:dc="http://purl.org/dc/elements/1.1/" xmlns:cc="http://creativecommons.org/ns#" xmlns:rdf="http://www.w3.org/1999/02/22-rdf-syntax-ns#">
   <cc:Work>
    <dc:type rdf:resource="http://purl.org/dc/dcmitype/StillImage"/>
    <dc:format>image/svg+xml</dc:format>
    <dc:creator>
     <cc:Agent>
      <dc:title>EasyViz</dc:title>
     </cc:Agent>
    </dc:creator>
   </cc:Work>
  </rdf:RDF>
 </metadata>
 <defs>
  <style type="text/css">*{stroke-linejoin: round; stroke-linecap: butt}</style>
 </defs>
 <g id="figure_1">
  <g id="patch_1">
   <path d="M 0 249.448819 
L 249.448819 249.448819 
L 249.448819 0 
L 0 0 
z
" style="fill: #ffffff"/>
  </g>
  <g id="axes_1">
   <g id="patch_2">
    <path d="M 49.889764 199.559055 
L 192.075591 199.559055 
L 192.075591 22.450394 
L 49.889764 22.450394 
z
" style="fill: #ffffff"/>
   </g>
   <g id="matplotlib.axis_1">
    <g id="xtick_1">
     <g id="line2d_1">
      <defs>
       <path id="m4a1f4d3a17" d="M 0 0 
L 0 3.5 
" style="stroke: #000000; stroke-width: 0.6"/>
      </defs>
      <g>
       <use xlink:href="#m4a1f4d3a17" x="88.667717" y="199.559055" style="stroke: #000000; stroke-width: 0.6"/>
      </g>
     </g>
     <g id="text_1">
      <text style="font-size: 8px; font-family: 'Arial'; text-anchor: middle" x="88.667717" y="212.383274" transform="rotate(-0 88.667717 212.383274)">Control</text>
     </g>
    </g>
    <g id="xtick_2">
     <g id="line2d_2">
      <g>
       <use xlink:href="#m4a1f4d3a17" x="153.297638" y="199.559055" style="stroke: #000000; stroke-width: 0.6"/>
      </g>
     </g>
     <g id="text_2">
      <text style="font-size: 8px; font-family: 'Arial'; text-anchor: middle" x="153.297638" y="212.383274" transform="rotate(-0 153.297638 212.383274)">Treatment</text>
     </g>
    </g>
    <g id="text_3">
     <text style="font-size: 8px; font-family: 'Arial'; text-anchor: middle" x="120.982677" y="223.891086" transform="rotate(-0 120.982677 223.891086)">Group</text>
    </g>
   </g>
   <g id="matplotlib.axis_2">
    <g id="ytick_1">
     <g id="line2d_3">
      <defs>
       <path id="me4ba3097ba" d="M 0 0 
L -3.5 0 
" style="stroke: #000000; stroke-width: 0.6"/>
      </defs>
      <g>
       <use xlink:href="#me4ba3097ba" x="49.889764" y="168.843794" style="stroke: #000000; stroke-width: 0.6"/>
      </g>
     </g>
     <g id="text_4">
      <text style="font-size: 8px; font-family: 'Arial'; text-anchor: end" x="42.889764" y="171.755904" transform="rotate(-0 42.889764 171.755904)">4</text>
     </g>
    </g>
    <g id="ytick_2">
     <g id="line2d_4">
      <g>
       <use xlink:href="#me4ba3097ba" x="49.889764" y="130.879193" style="stroke: #000000; stroke-width: 0.6"/>
      </g>
     </g>
     <g id="text_5">
      <text style="font-size: 8px; font-family: 'Arial'; text-anchor: end" x="42.889764" y="133.791303" transform="rotate(-0 42.889764 133.791303)">5</text>
     </g>
    </g>
    <g id="ytick_3">
     <g id="line2d_5">
      <g>
       <use xlink:href="#me4ba3097ba" x="49.889764" y="92.914592" style="stroke: #000000; stroke-width: 0.6"/>
      </g>
     </g>
     <g id="text_6">
      <text style="font-size: 8px; font-family: 'Arial'; text-anchor: end" x="42.889764" y="95.826701" transform="rotate(-0 42.889764 95.826701)">6</text>
     </g>
    </g>
    <g id="ytick_4">
     <g id="line2d_6">
      <g>
       <use xlink:href="#me4ba3097ba" x="49.889764" y="54.949991" style="stroke: #000000; stroke-width: 0.6"/>
      </g>
     </g>
     <g id="text_7">
      <text style="font-size: 8px; font-family: 'Arial'; text-anchor: end" x="42.889764" y="57.8621" transform="rotate(-0 42.889764 57.8621)">7</text>
     </g>
    </g>
    <g id="text_8">
     <text style="font-size: 8px; font-family: 'Arial'; text-anchor: middle" x="32.75742" y="111.004724" transform="rotate(-90 32.75742 111.004724)">Measurement</text>
    </g>
   </g>
   <g id="patch_3">
    <path d="M 72.510236 170.941339 
L 104.825197 170.941339 
L 104.825197 132.00864 
L 72.510236 132.00864 
L 72.510236 170.941339 
z
" clip-path="url(#p08f75174d5)" style="fill: #29acf3; fill-opacity: 0.22; stroke: #29acf3; stroke-width: 0.6; stroke-linejoin: miter"/>
   </g>
   <g id="line2d_7">
    <path d="M 88.667717 170.941339 
L 88.667717 182.321228 
" clip-path="url(#p08f75174d5)" style="fill: none; stroke: #000000; stroke-width: 0.6; stroke-linecap: square"/>
   </g>
   <g id="line2d_8">
    <path d="M 88.667717 132.00864 
L 88.667717 103.924326 
" clip-path="url(#p08f75174d5)" style="fill: none; stroke: #000000; stroke-width: 0.6; stroke-linecap: square"/>
   </g>
   <g id="line2d_9">
    <path d="M 80.588976 182.321228 
L 96.746457 182.321228 
" clip-path="url(#p08f75174d5)" style="fill: none; stroke: #000000; stroke-width: 0.6; stroke-linecap: square"/>
   </g>
   <g id="line2d_10">
    <path d="M 80.588976 103.924326 
L 96.746457 103.924326 
" clip-path="url(#p08f75174d5)" style="fill: none; stroke: #000000; stroke-width: 0.6; stroke-linecap: square"/>
   </g>
   <g id="patch_4">
    <path d="M 137.140157 150.971958 
L 169.455118 150.971958 
L 169.455118 92.098353 
L 137.140157 92.098353 
L 137.140157 150.971958 
z
" clip-path="url(#p08f75174d5)" style="fill: #e47751; fill-opacity: 0.22; stroke: #e47751; stroke-width: 0.6; stroke-linejoin: miter"/>
   </g>
   <g id="line2d_11">
    <path d="M 153.297638 150.971958 
L 153.297638 191.508661 
" clip-path="url(#p08f75174d5)" style="fill: none; stroke: #000000; stroke-width: 0.6; stroke-linecap: square"/>
   </g>
   <g id="line2d_12">
    <path d="M 153.297638 92.098353 
L 153.297638 30.500787 
" clip-path="url(#p08f75174d5)" style="fill: none; stroke: #000000; stroke-width: 0.6; stroke-linecap: square"/>
   </g>
   <g id="line2d_13">
    <path d="M 145.218898 191.508661 
L 161.376378 191.508661 
" clip-path="url(#p08f75174d5)" style="fill: none; stroke: #000000; stroke-width: 0.6; stroke-linecap: square"/>
   </g>
   <g id="line2d_14">
    <path d="M 145.218898 30.500787 
L 161.376378 30.500787 
" clip-path="url(#p08f75174d5)" style="fill: none; stroke: #000000; stroke-width: 0.6; stroke-linecap: square"/>
   </g>
   <g id="line2d_15">
    <path d="M 72.510236 147.35583 
L 104.825197 147.35583 
" clip-path="url(#p08f75174d5)" style="fill: none; stroke: #222222; stroke-width: 0.6"/>
   </g>
   <g id="line2d_16">
    <path d="M 137.140157 119.224061 
L 169.455118 119.224061 
" clip-path="url(#p08f75174d5)" style="fill: none; stroke: #222222; stroke-width: 0.6"/>
   </g>
   <g id="patch_5">
    <path d="M 49.889764 199.559055 
L 49.889764 22.450394 
" style="fill: none; stroke: #000000; stroke-width: 0.6; stroke-linejoin: miter; stroke-linecap: square"/>
   </g>
   <g id="patch_6">
    <path d="M 49.889764 199.559055 
L 192.075591 199.559055 
" style="fill: none; stroke: #000000; stroke-width: 0.6; stroke-linejoin: miter; stroke-linecap: square"/>
   </g>
   <g id="PathCollection_1">
    <defs>
     <path id="me62604a2ec" d="M 0 1.5 
C 0.397805 1.5 0.77937 1.341951 1.06066 1.06066 
C 1.341951 0.77937 1.5 0.397805 1.5 0 
C 1.5 -0.397805 1.341951 -0.77937 1.06066 -1.06066 
C 0.77937 -1.341951 0.397805 -1.5 0 -1.5 
C -0.397805 -1.5 -0.77937 -1.341951 -1.06066 -1.06066 
C -1.341951 -0.77937 -1.5 -0.397805 -1.5 0 
C -1.5 0.397805 -1.341951 0.77937 -1.06066 1.06066 
C -0.77937 1.341951 -0.397805 1.5 0 1.5 
z
"/>
    </defs>
    <g clip-path="url(#p08f75174d5)">
     <use xlink:href="#me62604a2ec" x="96.276619" y="170.893883" style="fill: #29acf3; fill-opacity: 0.85"/>
     <use xlink:href="#me62604a2ec" x="87.502857" y="141.775034" style="fill: #29acf3; fill-opacity: 0.85"/>
     <use xlink:href="#me62604a2ec" x="93.874939" y="133.384857" style="fill: #29acf3; fill-opacity: 0.85"/>
     <use xlink:href="#me62604a2ec" x="86.917498" y="150.886538" style="fill: #29acf3; fill-opacity: 0.85"/>
     <use xlink:href="#me62604a2ec" x="90.646096" y="103.924326" style="fill: #29acf3; fill-opacity: 0.85"/>
     <use xlink:href="#me62604a2ec" x="81.792249" y="179.28406" style="fill: #29acf3; fill-opacity: 0.85"/>
     <use xlink:href="#me62604a2ec" x="96.772306" y="171.083706" style="fill: #29acf3; fill-opacity: 0.85"/>
     <use xlink:href="#me62604a2ec" x="93.594364" y="143.825122" style="fill: #29acf3; fill-opacity: 0.85"/>
     <use xlink:href="#me62604a2ec" x="83.042484" y="123.703884" style="fill: #29acf3; fill-opacity: 0.85"/>
     <use xlink:href="#me62604a2ec" x="87.582335" y="127.87999" style="fill: #29acf3; fill-opacity: 0.85"/>
     <use xlink:href="#me62604a2ec" x="87.321923" y="182.321228" style="fill: #29acf3; fill-opacity: 0.85"/>
     <use xlink:href="#me62604a2ec" x="91.919045" y="159.048927" style="fill: #29acf3; fill-opacity: 0.85"/>
    </g>
   </g>
   <g id="PathCollection_2">
    <defs>
     <path id="m4ba35a40f7" d="M 0 1.5 
C 0.397805 1.5 0.77937 1.341951 1.06066 1.06066 
C 1.341951 0.77937 1.5 0.397805 1.5 0 
C 1.5 -0.397805 1.341951 -0.77937 1.06066 -1.06066 
C 0.77937 -1.341951 0.397805 -1.5 0 -1.5 
C -0.397805 -1.5 -0.77937 -1.341951 -1.06066 -1.06066 
C -1.341951 -0.77937 -1.5 -0.397805 -1.5 0 
C -1.5 0.397805 -1.341951 0.77937 -1.06066 1.06066 
C -0.77937 1.341951 -0.397805 1.5 0 1.5 
z
"/>
    </defs>
    <g clip-path="url(#p08f75174d5)">
     <use xlink:href="#m4ba35a40f7" x="161.584717" y="98.912999" style="fill: #e47751; fill-opacity: 0.85"/>
     <use xlink:href="#m4ba35a40f7" x="161.152823" y="122.033441" style="fill: #e47751; fill-opacity: 0.85"/>
     <use xlink:href="#m4ba35a40f7" x="150.481973" y="116.41468" style="fill: #e47751; fill-opacity: 0.85"/>
     <use xlink:href="#m4ba35a40f7" x="149.70307" y="191.508661" style="fill: #e47751; fill-opacity: 0.85"/>
     <use xlink:href="#m4ba35a40f7" x="156.966917" y="106.354061" style="fill: #e47751; fill-opacity: 0.85"/>
     <use xlink:href="#m4ba35a40f7" x="159.825039" y="156.353441" style="fill: #e47751; fill-opacity: 0.85"/>
     <use xlink:href="#m4ba35a40f7" x="149.782292" y="46.44592" style="fill: #e47751; fill-opacity: 0.85"/>
     <use xlink:href="#m4ba35a40f7" x="156.206899" y="145.95114" style="fill: #e47751; fill-opacity: 0.85"/>
     <use xlink:href="#m4ba35a40f7" x="156.572216" y="149.178131" style="fill: #e47751; fill-opacity: 0.85"/>
     <use xlink:href="#m4ba35a40f7" x="150.648167" y="71.654415" style="fill: #e47751; fill-opacity: 0.85"/>
     <use xlink:href="#m4ba35a40f7" x="147.871787" y="30.500787" style="fill: #e47751; fill-opacity: 0.85"/>
     <use xlink:href="#m4ba35a40f7" x="155.258854" y="161.896272" style="fill: #e47751; fill-opacity: 0.85"/>
    </g>
   </g>
   <g id="text_9">
    <g id="patch_7">
     <path d="M 51.77348 44.366629 
L 127.93848 44.366629 
L 127.93848 25.032567 
L 51.77348 25.032567 
z
" style="fill: #ffffff; opacity: 0.85"/>
    </g>
    <text style="font-size: 8px; font-family: 'Arial'" transform="translate(52.73348 32.416395)">Control vs Treatment</text>
    <text style="font-size: 8px; font-family: 'Arial'" transform="translate(52.73348 41.123426)">welch: p = 0.0542</text>
   </g>
  </g>
 </g>
 <defs>
  <clipPath id="p08f75174d5">
   <rect x="49.889764" y="22.450394" width="142.185827" height="177.108661"/>
  </clipPath>
 </defs>
</svg>
