<?xml version="1.0" encoding="utf-8" standalone="no"?>
<!DOCTYPE svg PUBLIC "-//W3C//DTD SVG 1.1//EN"
  "http://www.w3.org/Graphics/SVG/1.1/DTD/svg11.dtd">
<svg xmlns:xlink="http://www.w3.org/1999/xlink" width="311.811024pt" height="226.771654pt" viewBox="0 0 311.811024 226.771654" xmlns="http://www.w3.org/2000/svg" version="1.1">
 <metadata>
  <rdf:RDF xmlns:dc="http://purl.org/dc/elements/1.1/" xmlns:cc="http://creativecommons.org/ns#" xmlns:rdf="http://www.w3.org/1999/02/22-rdf-syntax-ns#">
   <cc:Work>
    <dc:type rdf:resource="http://purl.org/dc/dcmitype/StillImage"/>
    <dc:format>image/svg+xml</dc:format>
    <dc:creator>
     <cc:Agent>
      <dc:title>EasyViz</dc:title>
     </cc:Agent>
    </dc:creator>
   </cc:Work>
  </rdf:RDF>
 </metadata>
 <defs>
  <style type="text/css">*{stroke-linejoin: round; stroke-linecap: butt}</style>
 </defs>
 <g id="figure_1">
  <g id="patch_1">
   <path d="M 0 226.771654 
L 311.811024 226.771654 
L 311.811024 0 
L 0 0 
z
" style="fill: #ffffff"/>
  </g>
  <g id="easyviz-axes-c733e892ae73784e">
   <g id="patch_2">
    <path d="M 34.977104 195.086737 
L 306.141732 195.086737 
L 306.141732 29.188853 
L 34.977104 29.188853 
z
" style="fill: #ffffff"/>
   </g>
   <g id="matplotlib.axis_1">
    <g id="xtick_1">
     <g id="line2d_1">
      <defs>
       <path id="m4a1f4d3a17" d="M 0 0 
L 0 3.5 
" style="stroke: #000000; stroke-width: 0.6"/>
      </defs>
      <g>
       <use xlink:href="#m4a1f4d3a17" x="47.302769" y="195.086737" style="stroke: #000000; stroke-width: 0.6"/>
      </g>
     </g>
     <g id="text_1">
      <text style="font-size: 8px; font-family: 'Arial'; text-anchor: middle" x="47.302769" y="207.910956" transform="rotate(-0 47.302769 207.910956)">1.00</text>
     </g>
    </g>
    <g id="xtick_2">
     <g id="line2d_2">
      <g>
       <use xlink:href="#m4a1f4d3a17" x="78.116931" y="195.086737" style="stroke: #000000; stroke-width: 0.6"/>
      </g>
     </g>
     <g id="text_2">
      <text style="font-size: 8px; font-family: 'Arial'; text-anchor: middle" x="78.116931" y="207.910956" transform="rotate(-0 78.116931 207.910956)">1.25</text>
     </g>
    </g>
    <g id="xtick_3">
     <g id="line2d_3">
      <g>
       <use xlink:href="#m4a1f4d3a17" x="108.931093" y="195.086737" style="stroke: #000000; stroke-width: 0.6"/>
      </g>
     </g>
     <g id="text_3">
      <text style="font-size: 8px; font-family: 'Arial'; text-anchor: middle" x="108.931093" y="207.910956" transform="rotate(-0 108.931093 207.910956)">1.50</text>
     </g>
    </g>
    <g id="xtick_4">
     <g id="line2d_4">
      <g>
       <use xlink:href="#m4a1f4d3a17" x="139.745256" y="195.086737" style="stroke: #000000; stroke-width: 0.6"/>
      </g>
     </g>
     <g id="text_4">
      <text style="font-size: 8px; font-family: 'Arial'; text-anchor: middle" x="139.745256" y="207.910956" transform="rotate(-0 139.745256 207.910956)">1.75</text>
     </g>
    </g>
    <g id="xtick_5">
     <g id="line2d_5">
      <g>
       <use xlink:href="#m4a1f4d3a17" x="170.559418" y="195.086737" style="stroke: #000000; stroke-width: 0.6"/>
      </g>
     </g>
     <g id="text_5">
      <text style="font-size: 8px; font-family: 'Arial'; text-anchor: middle" x="170.559418" y="207.910956" transform="rotate(-0 170.559418 207.910956)">2.00</text>
     </g>
    </g>
    <g id="xtick_6">
     <g id="line2d_6">
      <g>
       <use xlink:href="#m4a1f4d3a17" x="201.37358" y="195.086737" style="stroke: #000000; stroke-width: 0.6"/>
      </g>
     </g>
     <g id="text_6">
      <text style="font-size: 8px; font-family: 'Arial'; text-anchor: middle" x="201.37358" y="207.910956" transform="rotate(-0 201.37358 207.910956)">2.25</text>
     </g>
    </g>
    <g id="xtick_7">
     <g id="line2d_7">
      <g>
       <use xlink:href="#m4a1f4d3a17" x="232.187743" y="195.086737" style="stroke: #000000; stroke-width: 0.6"/>
      </g>
     </g>
     <g id="text_7">
      <text style="font-size: 8px; font-family: 'Arial'; text-anchor: middle" x="232.187743" y="207.910956" transform="rotate(-0 232.187743 207.910956)">2.50</text>
     </g>
    </g>
    <g id="xtick_8">
     <g id="line2d_8">
      <g>
       <use xlink:href="#m4a1f4d3a17" x="263.001905" y="195.086737" style="stroke: #000000; stroke-width: 0.6"/>
      </g>
     </g>
     <g id="text_8">
      <text style="font-size: 8px; font-family: 'Arial'; text-anchor: middle" x="263.001905" y="207.910956" transform="rotate(-0 263.001905 207.910956)">2.75</text>
     </g>
    </g>
    <g id="xtick_9">
     <g id="line2d_9">
      <g>
       <use xlink:href="#m4a1f4d3a17" x="293.816067" y="195.086737" style="stroke: #000000; stroke-width: 0.6"/>
      </g>
     </g>
     <g id="text_9">
      <text style="font-size: 8px; font-family: 'Arial'; text-anchor: middle" x="293.816067" y="207.910956" transform="rotate(-0 293.816067 207.910956)">3.00</text>
     </g>
    </g>
    <g id="easyviz-axis-label-ffb0bed284770937">
     <text style="font-size: 8px; font-family: 'Arial'; text-anchor: middle" x="170.559418" y="219.418768" transform="rotate(-0 170.559418 219.418768)">Dose (a.u.)</text>
    </g>
   </g>
   <g id="matplotlib.axis_2">
    <g id="ytick_1">
     <g id="line2d_10">
      <defs>
       <path id="me4ba3097ba" d="M 0 0 
L -3.5 0 
" style="stroke: #000000; stroke-width: 0.6"/>
      </defs>
      <g>
       <use xlink:href="#me4ba3097ba" x="34.977104" y="187.545924" style="stroke: #000000; stroke-width: 0.6"/>
      </g>
     </g>
     <g id="text_10">
      <text style="font-size: 8px; font-family: 'Arial'; text-anchor: end" x="27.977104" y="190.458034" transform="rotate(-0 27.977104 190.458034)">2.0</text>
     </g>
    </g>
    <g id="ytick_2">
     <g id="line2d_11">
      <g>
       <use xlink:href="#me4ba3097ba" x="34.977104" y="162.409881" style="stroke: #000000; stroke-width: 0.6"/>
      </g>
     </g>
     <g id="text_11">
      <text style="font-size: 8px; font-family: 'Arial'; text-anchor: end" x="27.977104" y="165.321991" transform="rotate(-0 27.977104 165.321991)">2.5</text>
     </g>
    </g>
    <g id="ytick_3">
     <g id="line2d_12">
      <g>
       <use xlink:href="#me4ba3097ba" x="34.977104" y="137.273838" style="stroke: #000000; stroke-width: 0.6"/>
      </g>
     </g>
     <g id="text_12">
      <text style="font-size: 8px; font-family: 'Arial'; text-anchor: end" x="27.977104" y="140.185948" transform="rotate(-0 27.977104 140.185948)">3.0</text>
     </g>
    </g>
    <g id="ytick_4">
     <g id="line2d_13">
      <g>
       <use xlink:href="#me4ba3097ba" x="34.977104" y="112.137795" style="stroke: #000000; stroke-width: 0.6"/>
      </g>
     </g>
     <g id="text_13">
      <text style="font-size: 8px; font-family: 'Arial'; text-anchor: end" x="27.977104" y="115.049905" transform="rotate(-0 27.977104 115.049905)">3.5</text>
     </g>
    </g>
    <g id="ytick_5">
     <g id="line2d_14">
      <g>
       <use xlink:href="#me4ba3097ba" x="34.977104" y="87.001752" style="stroke: #000000; stroke-width: 0.6"/>
      </g>
     </g>
     <g id="text_14">
      <text style="font-size: 8px; font-family: 'Arial'; text-anchor: end" x="27.977104" y="89.913862" transform="rotate(-0 27.977104 89.913862)">4.0</text>
     </g>
    </g>
    <g id="ytick_6">
     <g id="line2d_15">
      <g>
       <use xlink:href="#me4ba3097ba" x="34.977104" y="61.865709" style="stroke: #000000; stroke-width: 0.6"/>
      </g>
     </g>
     <g id="text_15">
      <text style="font-size: 8px; font-family: 'Arial'; text-anchor: end" x="27.977104" y="64.777819" transform="rotate(-0 27.977104 64.777819)">4.5</text>
     </g>
    </g>
    <g id="ytick_7">
     <g id="line2d_16">
      <g>
       <use xlink:href="#me4ba3097ba" x="34.977104" y="36.729666" style="stroke: #000000; stroke-width: 0.6"/>
      </g>
     </g>
     <g id="text_16">
      <text style="font-size: 8px; font-family: 'Arial'; text-anchor: end" x="27.977104" y="39.641776" transform="rotate(-0 27.977104 39.641776)">5.0</text>
     </g>
    </g>
    <g id="easyviz-axis-label-5f702097b13456c5">
     <text style="font-size: 8px; font-family: 'Arial'; text-anchor: middle" x="11.173354" y="112.137795" transform="rotate(-90 11.173354 112.137795)">Response (a.u.)</text>
    </g>
   </g>
   <g id="patch_3">
    <path d="M 34.977104 195.086737 
L 34.977104 29.188853 
" style="fill: none; stroke: #000000; stroke-width: 0.6; stroke-linejoin: miter; stroke-linecap: square"/>
   </g>
   <g id="patch_4">
    <path d="M 34.977104 195.086737 
L 306.141732 195.086737 
" style="fill: none; stroke: #000000; stroke-width: 0.6; stroke-linejoin: miter; stroke-linecap: square"/>
   </g>
   <g id="easyviz-point-group-1c420bbc7ab49043">
    <defs>
     <path id="m9e50aebf45" d="M 0 1.732051 
C 0.459345 1.732051 0.899939 1.549551 1.224745 1.224745 
C 1.549551 0.899939 1.732051 0.459345 1.732051 0 
C 1.732051 -0.459345 1.549551 -0.899939 1.224745 -1.224745 
C 0.899939 -1.549551 0.459345 -1.732051 0 -1.732051 
C -0.459345 -1.732051 -0.899939 -1.549551 -1.224745 -1.224745 
C -1.549551 -0.899939 -1.732051 -0.459345 -1.732051 0 
C -1.732051 0.459345 -1.549551 0.899939 -1.224745 1.224745 
C -0.899939 1.549551 -0.459345 1.732051 0 1.732051 
z
"/>
    </defs>
    <g clip-path="url(#p25cdc71a8f)">
     <use xlink:href="#m9e50aebf45" x="47.302769" y="187.545924" style="fill: #29acf3; fill-opacity: 0.85"/>
     <use xlink:href="#m9e50aebf45" x="170.559418" y="137.273838" style="fill: #29acf3; fill-opacity: 0.85"/>
     <use xlink:href="#m9e50aebf45" x="293.816067" y="147.328255" style="fill: #29acf3; fill-opacity: 0.85"/>
    </g>
   </g>
   <g id="easyviz-point-group-956841fe8c2ee38e">
    <defs>
     <path id="m7518da5890" d="M 0 1.732051 
C 0.459345 1.732051 0.899939 1.549551 1.224745 1.224745 
C 1.549551 0.899939 1.732051 0.459345 1.732051 0 
C 1.732051 -0.459345 1.549551 -0.899939 1.224745 -1.224745 
C 0.899939 -1.549551 0.459345 -1.732051 0 -1.732051 
C -0.459345 -1.732051 -0.899939 -1.549551 -1.224745 -1.224745 
C -1.549551 -0.899939 -1.732051 -0.459345 -1.732051 0 
C -1.732051 0.459345 -1.549551 0.899939 -1.224745 1.224745 
C -0.899939 1.549551 -0.459345 1.732051 0 1.732051 
z
"/>
    </defs>
    <g clip-path="url(#p25cdc71a8f)">
     <use xlink:href="#m7518da5890" x="47.302769" y="87.001752" style="fill: #e47751; fill-opacity: 0.85"/>
     <use xlink:href="#m7518da5890" x="170.559418" y="61.865709" style="fill: #e47751; fill-opacity: 0.85"/>
     <use xlink:href="#m7518da5890" x="293.816067" y="36.729666" style="fill: #e47751; fill-opacity: 0.85"/>
    </g>
   </g>
  </g>
  <g id="easyviz-legend-13447354a9a39306">
   <g id="easyviz-legend-key-4dbed3c12a2655f2">
    <defs>
     <path id="m997456bcf0" d="M 0 2.125984 
C 0.563818 2.125984 1.104619 1.901977 1.503298 1.503298 
C 1.901977 1.104619 2.125984 0.563818 2.125984 0 
C 2.125984 -0.563818 1.901977 -1.104619 1.503298 -1.503298 
C 1.104619 -1.901977 0.563818 -2.125984 0 -2.125984 
C -0.563818 -2.125984 -1.104619 -1.901977 -1.503298 -1.503298 
C -1.901977 -1.104619 -2.125984 -0.563818 -2.125984 0 
C -2.125984 0.563818 -1.901977 1.104619 -1.503298 1.503298 
C -1.104619 1.901977 -0.563818 2.125984 0 2.125984 
z
"/>
    </defs>
    <g>
     <use xlink:href="#m997456bcf0" x="151.488542" y="9.571523" style="fill: #29acf3"/>
    </g>
   </g>
   <g id="text_17">
    <text style="font-size: 8px; font-family: 'Arial'; text-anchor: start" x="155.598778" y="12.060439" transform="rotate(-0 155.598778 12.060439)">Control</text>
   </g>
   <g id="easyviz-legend-key-26e38b10bd2b4453">
    <defs>
     <path id="mf62a639cfb" d="M 0 2.125984 
C 0.563818 2.125984 1.104619 1.901977 1.503298 1.503298 
C 1.901977 1.104619 2.125984 0.563818 2.125984 0 
C 2.125984 -0.563818 1.901977 -1.104619 1.503298 -1.503298 
C 1.104619 -1.901977 0.563818 -2.125984 0 -2.125984 
C -0.563818 -2.125984 -1.104619 -1.901977 -1.503298 -1.503298 
C -1.901977 -1.104619 -2.125984 -0.563818 -2.125984 0 
C -2.125984 0.563818 -1.901977 1.104619 -1.503298 1.503298 
C -1.104619 1.901977 -0.563818 2.125984 0 2.125984 
z
"/>
    </defs>
    <g>
     <use xlink:href="#mf62a639cfb" x="151.488542" y="18.780123" style="fill: #e47751"/>
    </g>
   </g>
   <g id="text_18">
    <text style="font-size: 8px; font-family: 'Arial'; text-anchor: start" x="155.598778" y="21.269039" transform="rotate(-0 155.598778 21.269039)">Treatment</text>
   </g>
  </g>
 </g>
 <defs>
  <clipPath id="p25cdc71a8f">
   <rect x="34.977104" y="29.188853" width="271.164628" height="165.897884"/>
  </clipPath>
 </defs>
</svg>
