<?xml version="1.0" encoding="utf-8" standalone="no"?>
<!DOCTYPE svg PUBLIC "-//W3C//DTD SVG 1.1//EN"
  "http://www.w3.org/Graphics/SVG/1.1/DTD/svg11.dtd">
<svg xmlns:xlink="http://www.w3.org/1999/xlink" width="311.811024pt" height="255.11811pt" viewBox="0 0 311.811024 255.11811" xmlns="http://www.w3.org/2000/svg" version="1.1">
 <metadata>
  <rdf:RDF xmlns:dc="http://purl.org/dc/elements/1.1/" xmlns:cc="http://creativecommons.org/ns#" xmlns:rdf="http://www.w3.org/1999/02/22-rdf-syntax-ns#">
   <cc:Work>
    <dc:type rdf:resource="http://purl.org/dc/dcmitype/StillImage"/>
    <dc:format>image/svg+xml</dc:format>
    <dc:creator>
     <cc:Agent>
      <dc:title>EasyViz</dc:title>
     </cc:Agent>
    </dc:creator>
   </cc:Work>
  </rdf:RDF>
 </metadata>
 <defs>
  <style type="text/css">*{stroke-linejoin: round; stroke-linecap: butt}</style>
 </defs>
 <g id="figure_1">
  <g id="patch_1">
   <path d="M 0 255.11811 
L 311.811024 255.11811 
L 311.811024 0 
L 0 0 
z
" style="fill: #ffffff"/>
  </g>
  <g id="axes_1">
   <g id="patch_2">
    <path d="M 36.189291 219.561919 
L 306.141732 219.561919 
L 306.141732 8.708354 
L 36.189291 8.708354 
z
" style="fill: #ffffff"/>
   </g>
   <g id="matplotlib.axis_1">
    <g id="xtick_1">
     <g id="line2d_1">
      <defs>
       <path id="m4a1f4d3a17" d="M 0 0 
L 0 3.5 
" style="stroke: #000000; stroke-width: 0.6"/>
      </defs>
      <g>
       <use xlink:href="#m4a1f4d3a17" x="62.378707" y="219.561919" style="stroke: #000000; stroke-width: 0.6"/>
      </g>
     </g>
     <g id="text_1">
      <text style="font-size: 8px; font-family: 'DejaVu Sans'; text-anchor: middle" x="62.378707" y="232.640669" transform="rotate(-0 62.378707 232.640669)">Follow-up</text>
     </g>
    </g>
    <g id="xtick_2">
     <g id="line2d_2">
      <g>
       <use xlink:href="#m4a1f4d3a17" x="102.670116" y="219.561919" style="stroke: #000000; stroke-width: 0.6"/>
      </g>
     </g>
     <g id="text_2">
      <text style="font-size: 8px; font-family: 'DejaVu Sans'; text-anchor: middle" x="102.670116" y="232.640669" transform="rotate(-0 102.670116 232.640669)">Baseline</text>
     </g>
    </g>
    <g id="xtick_3">
     <g id="line2d_3">
      <g>
       <use xlink:href="#m4a1f4d3a17" x="142.961525" y="219.561919" style="stroke: #000000; stroke-width: 0.6"/>
      </g>
     </g>
     <g id="text_3">
      <text style="font-size: 8px; font-family: 'DejaVu Sans'; text-anchor: middle" x="142.961525" y="232.640669" transform="rotate(-0 142.961525 232.640669)">Interim</text>
     </g>
    </g>
    <g id="xtick_4">
     <g id="line2d_4">
      <g>
       <use xlink:href="#m4a1f4d3a17" x="199.369498" y="219.561919" style="stroke: #000000; stroke-width: 0.6"/>
      </g>
     </g>
     <g id="text_4">
      <text style="font-size: 8px; font-family: 'DejaVu Sans'; text-anchor: middle" x="199.369498" y="232.640669" transform="rotate(-0 199.369498 232.640669)">Follow-up</text>
     </g>
    </g>
    <g id="xtick_5">
     <g id="line2d_5">
      <g>
       <use xlink:href="#m4a1f4d3a17" x="239.660907" y="219.561919" style="stroke: #000000; stroke-width: 0.6"/>
      </g>
     </g>
     <g id="text_5">
      <text style="font-size: 8px; font-family: 'DejaVu Sans'; text-anchor: middle" x="239.660907" y="232.640669" transform="rotate(-0 239.660907 232.640669)">Baseline</text>
     </g>
    </g>
    <g id="xtick_6">
     <g id="line2d_6">
      <g>
       <use xlink:href="#m4a1f4d3a17" x="279.952316" y="219.561919" style="stroke: #000000; stroke-width: 0.6"/>
      </g>
     </g>
     <g id="text_6">
      <text style="font-size: 8px; font-family: 'DejaVu Sans'; text-anchor: middle" x="279.952316" y="232.640669" transform="rotate(-0 279.952316 232.640669)">Interim</text>
     </g>
    </g>
   </g>
   <g id="matplotlib.axis_2">
    <g id="ytick_1">
     <g id="line2d_7">
      <defs>
       <path id="me4ba3097ba" d="M 0 0 
L -3.5 0 
" style="stroke: #000000; stroke-width: 0.6"/>
      </defs>
      <g>
       <use xlink:href="#me4ba3097ba" x="36.189291" y="219.561919" style="stroke: #000000; stroke-width: 0.6"/>
      </g>
     </g>
     <g id="text_7">
      <text style="font-size: 8px; font-family: 'DejaVu Sans'; text-anchor: end" x="29.189291" y="222.600982" transform="rotate(-0 29.189291 222.600982)">−4</text>
     </g>
    </g>
    <g id="ytick_2">
     <g id="line2d_8">
      <g>
       <use xlink:href="#me4ba3097ba" x="36.189291" y="193.205224" style="stroke: #000000; stroke-width: 0.6"/>
      </g>
     </g>
     <g id="text_8">
      <text style="font-size: 8px; font-family: 'DejaVu Sans'; text-anchor: end" x="29.189291" y="196.244286" transform="rotate(-0 29.189291 196.244286)">−2</text>
     </g>
    </g>
    <g id="ytick_3">
     <g id="line2d_9">
      <g>
       <use xlink:href="#me4ba3097ba" x="36.189291" y="166.848528" style="stroke: #000000; stroke-width: 0.6"/>
      </g>
     </g>
     <g id="text_9">
      <text style="font-size: 8px; font-family: 'DejaVu Sans'; text-anchor: end" x="29.189291" y="169.88759" transform="rotate(-0 29.189291 169.88759)">0</text>
     </g>
    </g>
    <g id="ytick_4">
     <g id="line2d_10">
      <g>
       <use xlink:href="#me4ba3097ba" x="36.189291" y="140.491832" style="stroke: #000000; stroke-width: 0.6"/>
      </g>
     </g>
     <g id="text_10">
      <text style="font-size: 8px; font-family: 'DejaVu Sans'; text-anchor: end" x="29.189291" y="143.530895" transform="rotate(-0 29.189291 143.530895)">2</text>
     </g>
    </g>
    <g id="ytick_5">
     <g id="line2d_11">
      <g>
       <use xlink:href="#me4ba3097ba" x="36.189291" y="114.135137" style="stroke: #000000; stroke-width: 0.6"/>
      </g>
     </g>
     <g id="text_11">
      <text style="font-size: 8px; font-family: 'DejaVu Sans'; text-anchor: end" x="29.189291" y="117.174199" transform="rotate(-0 29.189291 117.174199)">4</text>
     </g>
    </g>
    <g id="ytick_6">
     <g id="line2d_12">
      <g>
       <use xlink:href="#me4ba3097ba" x="36.189291" y="87.778441" style="stroke: #000000; stroke-width: 0.6"/>
      </g>
     </g>
     <g id="text_12">
      <text style="font-size: 8px; font-family: 'DejaVu Sans'; text-anchor: end" x="29.189291" y="90.817503" transform="rotate(-0 29.189291 90.817503)">6</text>
     </g>
    </g>
    <g id="ytick_7">
     <g id="line2d_13">
      <g>
       <use xlink:href="#me4ba3097ba" x="36.189291" y="61.421745" style="stroke: #000000; stroke-width: 0.6"/>
      </g>
     </g>
     <g id="text_13">
      <text style="font-size: 8px; font-family: 'DejaVu Sans'; text-anchor: end" x="29.189291" y="64.460808" transform="rotate(-0 29.189291 64.460808)">8</text>
     </g>
    </g>
    <g id="ytick_8">
     <g id="line2d_14">
      <g>
       <use xlink:href="#me4ba3097ba" x="36.189291" y="35.06505" style="stroke: #000000; stroke-width: 0.6"/>
      </g>
     </g>
     <g id="text_14">
      <text style="font-size: 8px; font-family: 'DejaVu Sans'; text-anchor: end" x="29.189291" y="38.104112" transform="rotate(-0 29.189291 38.104112)">10</text>
     </g>
    </g>
    <g id="ytick_9">
     <g id="line2d_15">
      <g>
       <use xlink:href="#me4ba3097ba" x="36.189291" y="8.708354" style="stroke: #000000; stroke-width: 0.6"/>
      </g>
     </g>
     <g id="text_15">
      <text style="font-size: 8px; font-family: 'DejaVu Sans'; text-anchor: end" x="29.189291" y="11.747416" transform="rotate(-0 29.189291 11.747416)">12</text>
     </g>
    </g>
    <g id="text_16">
     <text style="font-size: 8px; font-family: 'DejaVu Sans'; text-anchor: middle" x="11.473666" y="114.135137" transform="rotate(-90 11.473666 114.135137)">Measurement</text>
    </g>
   </g>
   <g id="LineCollection_1">
    <path d="M 68.255084 114.135137 
L 108.546493 180.026876 
" clip-path="url(#p3cb47c8a49)" style="fill: none; stroke: #4e78a0; stroke-opacity: 0.18; stroke-width: 0.4"/>
    <path d="M 108.546493 180.026876 
L 148.837902 140.491832 
" clip-path="url(#p3cb47c8a49)" style="fill: none; stroke: #4e78a0; stroke-opacity: 0.18; stroke-width: 0.4"/>
    <path d="M 59.467113 61.421745 
L 99.758522 166.848528 
" clip-path="url(#p3cb47c8a49)" style="fill: none; stroke: #4e78a0; stroke-opacity: 0.18; stroke-width: 0.4"/>
    <path d="M 99.758522 166.848528 
L 140.049931 114.135137 
" clip-path="url(#p3cb47c8a49)" style="fill: none; stroke: #4e78a0; stroke-opacity: 0.18; stroke-width: 0.4"/>
    <path d="M 208.483392 114.135137 
L 248.774801 180.026876 
" clip-path="url(#p3cb47c8a49)" style="fill: none; stroke: #a05272; stroke-opacity: 0.18; stroke-width: 0.4"/>
    <path d="M 248.774801 180.026876 
L 289.06621 140.491832 
" clip-path="url(#p3cb47c8a49)" style="fill: none; stroke: #a05272; stroke-opacity: 0.18; stroke-width: 0.4"/>
    <path d="M 200.122371 61.421745 
L 240.41378 166.848528 
" clip-path="url(#p3cb47c8a49)" style="fill: none; stroke: #a05272; stroke-opacity: 0.18; stroke-width: 0.4"/>
    <path d="M 240.41378 166.848528 
L 280.705189 114.135137 
" clip-path="url(#p3cb47c8a49)" style="fill: none; stroke: #a05272; stroke-opacity: 0.18; stroke-width: 0.4"/>
   </g>
   <g id="PathCollection_1">
    <defs>
     <path id="C0_0_a813f652ba" d="M 0 1.492705 
C 0.39587 1.492705 0.77558 1.335424 1.055502 1.055502 
C 1.335424 0.77558 1.492705 0.39587 1.492705 -0 
C 1.492705 -0.39587 1.335424 -0.77558 1.055502 -1.055502 
C 0.77558 -1.335424 0.39587 -1.492705 0 -1.492705 
C -0.39587 -1.492705 -0.77558 -1.335424 -1.055502 -1.055502 
C -1.335424 -0.77558 -1.492705 -0.39587 -1.492705 0 
C -1.492705 0.39587 -1.335424 0.77558 -1.055502 1.055502 
C -0.77558 1.335424 -0.39587 1.492705 0 1.492705 
z
"/>
    </defs>
    <g clip-path="url(#p3cb47c8a49)">
     <use xlink:href="#C0_0_a813f652ba" x="68.255084" y="114.135137" style="fill: #4e78a0"/>
    </g>
    <g clip-path="url(#p3cb47c8a49)">
     <use xlink:href="#C0_0_a813f652ba" x="59.467113" y="61.421745" style="fill: #4e78a0"/>
    </g>
   </g>
   <g id="PathCollection_2">
    <defs>
     <path id="C1_0_a813f652ba" d="M 0 1.492705 
C 0.39587 1.492705 0.77558 1.335424 1.055502 1.055502 
C 1.335424 0.77558 1.492705 0.39587 1.492705 -0 
C 1.492705 -0.39587 1.335424 -0.77558 1.055502 -1.055502 
C 0.77558 -1.335424 0.39587 -1.492705 0 -1.492705 
C -0.39587 -1.492705 -0.77558 -1.335424 -1.055502 -1.055502 
C -1.335424 -0.77558 -1.492705 -0.39587 -1.492705 0 
C -1.492705 0.39587 -1.335424 0.77558 -1.055502 1.055502 
C -0.77558 1.335424 -0.39587 1.492705 0 1.492705 
z
"/>
    </defs>
    <g clip-path="url(#p3cb47c8a49)">
     <use xlink:href="#C1_0_a813f652ba" x="108.546493" y="180.026876" style="fill: #4e78a0"/>
    </g>
    <g clip-path="url(#p3cb47c8a49)">
     <use xlink:href="#C1_0_a813f652ba" x="99.758522" y="166.848528" style="fill: #4e78a0"/>
    </g>
   </g>
   <g id="PathCollection_3">
    <defs>
     <path id="C2_0_a813f652ba" d="M 0 1.492705 
C 0.39587 1.492705 0.77558 1.335424 1.055502 1.055502 
C 1.335424 0.77558 1.492705 0.39587 1.492705 -0 
C 1.492705 -0.39587 1.335424 -0.77558 1.055502 -1.055502 
C 0.77558 -1.335424 0.39587 -1.492705 0 -1.492705 
C -0.39587 -1.492705 -0.77558 -1.335424 -1.055502 -1.055502 
C -1.335424 -0.77558 -1.492705 -0.39587 -1.492705 0 
C -1.492705 0.39587 -1.335424 0.77558 -1.055502 1.055502 
C -0.77558 1.335424 -0.39587 1.492705 0 1.492705 
z
"/>
    </defs>
    <g clip-path="url(#p3cb47c8a49)">
     <use xlink:href="#C2_0_a813f652ba" x="148.837902" y="140.491832" style="fill: #4e78a0"/>
    </g>
    <g clip-path="url(#p3cb47c8a49)">
     <use xlink:href="#C2_0_a813f652ba" x="140.049931" y="114.135137" style="fill: #4e78a0"/>
    </g>
   </g>
   <g id="PathCollection_4">
    <defs>
     <path id="C3_0_a813f652ba" d="M 0 1.492705 
C 0.39587 1.492705 0.77558 1.335424 1.055502 1.055502 
C 1.335424 0.77558 1.492705 0.39587 1.492705 -0 
C 1.492705 -0.39587 1.335424 -0.77558 1.055502 -1.055502 
C 0.77558 -1.335424 0.39587 -1.492705 0 -1.492705 
C -0.39587 -1.492705 -0.77558 -1.335424 -1.055502 -1.055502 
C -1.335424 -0.77558 -1.492705 -0.39587 -1.492705 0 
C -1.492705 0.39587 -1.335424 0.77558 -1.055502 1.055502 
C -0.77558 1.335424 -0.39587 1.492705 0 1.492705 
z
"/>
    </defs>
    <g clip-path="url(#p3cb47c8a49)">
     <use xlink:href="#C3_0_a813f652ba" x="208.483392" y="114.135137" style="fill: #a05272"/>
    </g>
    <g clip-path="url(#p3cb47c8a49)">
     <use xlink:href="#C3_0_a813f652ba" x="200.122371" y="61.421745" style="fill: #a05272"/>
    </g>
   </g>
   <g id="PathCollection_5">
    <defs>
     <path id="C4_0_a813f652ba" d="M 0 1.492705 
C 0.39587 1.492705 0.77558 1.335424 1.055502 1.055502 
C 1.335424 0.77558 1.492705 0.39587 1.492705 -0 
C 1.492705 -0.39587 1.335424 -0.77558 1.055502 -1.055502 
C 0.77558 -1.335424 0.39587 -1.492705 0 -1.492705 
C -0.39587 -1.492705 -0.77558 -1.335424 -1.055502 -1.055502 
C -1.335424 -0.77558 -1.492705 -0.39587 -1.492705 0 
C -1.492705 0.39587 -1.335424 0.77558 -1.055502 1.055502 
C -0.77558 1.335424 -0.39587 1.492705 0 1.492705 
z
"/>
    </defs>
    <g clip-path="url(#p3cb47c8a49)">
     <use xlink:href="#C4_0_a813f652ba" x="248.774801" y="180.026876" style="fill: #a05272"/>
    </g>
    <g clip-path="url(#p3cb47c8a49)">
     <use xlink:href="#C4_0_a813f652ba" x="240.41378" y="166.848528" style="fill: #a05272"/>
    </g>
   </g>
   <g id="PathCollection_6">
    <defs>
     <path id="C5_0_a813f652ba" d="M 0 1.492705 
C 0.39587 1.492705 0.77558 1.335424 1.055502 1.055502 
C 1.335424 0.77558 1.492705 0.39587 1.492705 -0 
C 1.492705 -0.39587 1.335424 -0.77558 1.055502 -1.055502 
C 0.77558 -1.335424 0.39587 -1.492705 0 -1.492705 
C -0.39587 -1.492705 -0.77558 -1.335424 -1.055502 -1.055502 
C -1.335424 -0.77558 -1.492705 -0.39587 -1.492705 0 
C -1.492705 0.39587 -1.335424 0.77558 -1.055502 1.055502 
C -0.77558 1.335424 -0.39587 1.492705 0 1.492705 
z
"/>
    </defs>
    <g clip-path="url(#p3cb47c8a49)">
     <use xlink:href="#C5_0_a813f652ba" x="289.06621" y="140.491832" style="fill: #a05272"/>
    </g>
    <g clip-path="url(#p3cb47c8a49)">
     <use xlink:href="#C5_0_a813f652ba" x="280.705189" y="114.135137" style="fill: #a05272"/>
    </g>
   </g>
   <g id="patch_3">
    <path d="M 36.189291 219.561919 
L 36.189291 8.708354 
" style="fill: none; stroke: #000000; stroke-width: 0.6; stroke-linejoin: miter; stroke-linecap: square"/>
   </g>
   <g id="patch_4">
    <path d="M 36.189291 219.561919 
L 306.141732 219.561919 
" style="fill: none; stroke: #000000; stroke-width: 0.6; stroke-linejoin: miter; stroke-linecap: square"/>
   </g>
   <g id="LineCollection_2">
    <path d="M 48.276714 87.778441 
L 76.4807 87.778441 
" clip-path="url(#p3cb47c8a49)" style="fill: none; stroke: #222222; stroke-width: 0.8"/>
    <path d="M 57.946652 114.135137 
L 66.810762 114.135137 
" clip-path="url(#p3cb47c8a49)" style="fill: none; stroke: #222222; stroke-width: 0.8"/>
    <path d="M 57.946652 61.421745 
L 66.810762 61.421745 
" clip-path="url(#p3cb47c8a49)" style="fill: none; stroke: #222222; stroke-width: 0.8"/>
   </g>
   <g id="LineCollection_3">
    <path d="M 62.378707 114.135137 
L 62.378707 61.421745 
" clip-path="url(#p3cb47c8a49)" style="fill: none; stroke: #222222; stroke-width: 0.8"/>
   </g>
   <g id="LineCollection_4">
    <path d="M 88.568123 173.437702 
L 116.77211 173.437702 
" clip-path="url(#p3cb47c8a49)" style="fill: none; stroke: #222222; stroke-width: 0.8"/>
    <path d="M 98.238061 180.026876 
L 107.102171 180.026876 
" clip-path="url(#p3cb47c8a49)" style="fill: none; stroke: #222222; stroke-width: 0.8"/>
    <path d="M 98.238061 166.848528 
L 107.102171 166.848528 
" clip-path="url(#p3cb47c8a49)" style="fill: none; stroke: #222222; stroke-width: 0.8"/>
   </g>
   <g id="LineCollection_5">
    <path d="M 102.670116 180.026876 
L 102.670116 166.848528 
" clip-path="url(#p3cb47c8a49)" style="fill: none; stroke: #222222; stroke-width: 0.8"/>
   </g>
   <g id="LineCollection_6">
    <path d="M 128.859532 127.313484 
L 157.063519 127.313484 
" clip-path="url(#p3cb47c8a49)" style="fill: none; stroke: #222222; stroke-width: 0.8"/>
    <path d="M 138.52947 140.491832 
L 147.39358 140.491832 
" clip-path="url(#p3cb47c8a49)" style="fill: none; stroke: #222222; stroke-width: 0.8"/>
    <path d="M 138.52947 114.135137 
L 147.39358 114.135137 
" clip-path="url(#p3cb47c8a49)" style="fill: none; stroke: #222222; stroke-width: 0.8"/>
   </g>
   <g id="LineCollection_7">
    <path d="M 142.961525 140.491832 
L 142.961525 114.135137 
" clip-path="url(#p3cb47c8a49)" style="fill: none; stroke: #222222; stroke-width: 0.8"/>
   </g>
   <g id="LineCollection_8">
    <path d="M 185.267505 87.778441 
L 213.471491 87.778441 
" clip-path="url(#p3cb47c8a49)" style="fill: none; stroke: #222222; stroke-width: 0.8"/>
    <path d="M 194.937443 114.135137 
L 203.801553 114.135137 
" clip-path="url(#p3cb47c8a49)" style="fill: none; stroke: #222222; stroke-width: 0.8"/>
    <path d="M 194.937443 61.421745 
L 203.801553 61.421745 
" clip-path="url(#p3cb47c8a49)" style="fill: none; stroke: #222222; stroke-width: 0.8"/>
   </g>
   <g id="LineCollection_9">
    <path d="M 199.369498 114.135137 
L 199.369498 61.421745 
" clip-path="url(#p3cb47c8a49)" style="fill: none; stroke: #222222; stroke-width: 0.8"/>
   </g>
   <g id="LineCollection_10">
    <path d="M 225.558914 173.437702 
L 253.7629 173.437702 
" clip-path="url(#p3cb47c8a49)" style="fill: none; stroke: #222222; stroke-width: 0.8"/>
    <path d="M 235.228852 180.026876 
L 244.092962 180.026876 
" clip-path="url(#p3cb47c8a49)" style="fill: none; stroke: #222222; stroke-width: 0.8"/>
    <path d="M 235.228852 166.848528 
L 244.092962 166.848528 
" clip-path="url(#p3cb47c8a49)" style="fill: none; stroke: #222222; stroke-width: 0.8"/>
   </g>
   <g id="LineCollection_11">
    <path d="M 239.660907 180.026876 
L 239.660907 166.848528 
" clip-path="url(#p3cb47c8a49)" style="fill: none; stroke: #222222; stroke-width: 0.8"/>
   </g>
   <g id="LineCollection_12">
    <path d="M 265.850323 127.313484 
L 294.05431 127.313484 
" clip-path="url(#p3cb47c8a49)" style="fill: none; stroke: #222222; stroke-width: 0.8"/>
    <path d="M 275.520261 140.491832 
L 284.384371 140.491832 
" clip-path="url(#p3cb47c8a49)" style="fill: none; stroke: #222222; stroke-width: 0.8"/>
    <path d="M 275.520261 114.135137 
L 284.384371 114.135137 
" clip-path="url(#p3cb47c8a49)" style="fill: none; stroke: #222222; stroke-width: 0.8"/>
   </g>
   <g id="LineCollection_13">
    <path d="M 279.952316 140.491832 
L 279.952316 114.135137 
" clip-path="url(#p3cb47c8a49)" style="fill: none; stroke: #222222; stroke-width: 0.8"/>
   </g>
  </g>
  <g id="legend_1">
   <g id="line2d_16">
    <defs>
     <path id="mf8eaf26b8a" d="M 0 2.125984 
C 0.563818 2.125984 1.104619 1.901977 1.503298 1.503298 
C 1.901977 1.104619 2.125984 0.563818 2.125984 0 
C 2.125984 -0.563818 1.901977 -1.104619 1.503298 -1.503298 
C 1.104619 -1.901977 0.563818 -2.125984 0 -2.125984 
C -0.563818 -2.125984 -1.104619 -1.901977 -1.503298 -1.503298 
C -1.901977 -1.104619 -2.125984 -0.563818 -2.125984 0 
C -2.125984 0.563818 -1.901977 1.104619 -1.503298 1.503298 
C -1.104619 1.901977 -0.563818 2.125984 0 2.125984 
z
"/>
    </defs>
    <g>
     <use xlink:href="#mf8eaf26b8a" x="139.78813" y="244.429849" style="fill: #4e78a0"/>
    </g>
   </g>
   <g id="text_17">
    <text style="font-size: 8px; font-family: 'DejaVu Sans'; text-anchor: start" x="143.898366" y="246.918765" transform="rotate(-0 143.898366 246.918765)">Arm Z</text>
   </g>
   <g id="line2d_17">
    <defs>
     <path id="m9dbba00e58" d="M 0 2.125984 
C 0.563818 2.125984 1.104619 1.901977 1.503298 1.503298 
C 1.901977 1.104619 2.125984 0.563818 2.125984 0 
C 2.125984 -0.563818 1.901977 -1.104619 1.503298 -1.503298 
C 1.104619 -1.901977 0.563818 -2.125984 0 -2.125984 
C -0.563818 -2.125984 -1.104619 -1.901977 -1.503298 -1.503298 
C -1.901977 -1.104619 -2.125984 -0.563818 -2.125984 0 
C -2.125984 0.563818 -1.901977 1.104619 -1.503298 1.503298 
C -1.104619 1.901977 -0.563818 2.125984 0 2.125984 
z
"/>
    </defs>
    <g>
     <use xlink:href="#m9dbba00e58" x="176.129892" y="244.429849" style="fill: #a05272"/>
    </g>
   </g>
   <g id="text_18">
    <text style="font-size: 8px; font-family: 'DejaVu Sans'; text-anchor: start" x="180.240128" y="246.918765" transform="rotate(-0 180.240128 246.918765)">Arm A</text>
   </g>
  </g>
 </g>
 <defs>
  <clipPath id="p3cb47c8a49">
   <rect x="36.189291" y="8.708354" width="269.952441" height="210.853565"/>
  </clipPath>
 </defs>
</svg>
