<?xml version="1.0" encoding="utf-8" standalone="no"?>
<!DOCTYPE svg PUBLIC "-//W3C//DTD SVG 1.1//EN"
  "http://www.w3.org/Graphics/SVG/1.1/DTD/svg11.dtd">
<svg xmlns:xlink="http://www.w3.org/1999/xlink" width="226.771654pt" height="198.425197pt" viewBox="0 0 226.771654 198.425197" xmlns="http://www.w3.org/2000/svg" version="1.1">
 <metadata>
  <rdf:RDF xmlns:dc="http://purl.org/dc/elements/1.1/" xmlns:cc="http://creativecommons.org/ns#" xmlns:rdf="http://www.w3.org/1999/02/22-rdf-syntax-ns#">
   <cc:Work>
    <dc:type rdf:resource="http://purl.org/dc/dcmitype/StillImage"/>
    <dc:format>image/svg+xml</dc:format>
    <dc:creator>
     <cc:Agent>
      <dc:title>EasyViz</dc:title>
     </cc:Agent>
    </dc:creator>
   </cc:Work>
  </rdf:RDF>
 </metadata>
 <defs>
  <style type="text/css">*{stroke-linejoin: round; stroke-linecap: butt}</style>
 </defs>
 <g id="figure_1">
  <g id="patch_1">
   <path d="M 0 198.425197 
L 226.771654 198.425197 
L 226.771654 0 
L 0 0 
z
" style="fill: #ffffff"/>
  </g>
  <g id="easyviz-axes-c733e892ae73784e">
   <g id="patch_2">
    <path d="M 35.151166 164.952156 
L 222.375016 164.952156 
L 222.375016 8.708354 
L 35.151166 8.708354 
z
" style="fill: #ffffff"/>
   </g>
   <g id="matplotlib.axis_1">
    <g id="xtick_1">
     <g id="easyviz-axis-tick-55fa9a7ca5a5ee6b">
      <defs>
       <path id="me4a8c73573" d="M 0 0 
L 0 3.5 
" style="stroke: #222222; stroke-width: 0.55"/>
      </defs>
      <g>
       <use xlink:href="#me4a8c73573" x="61.897431" y="164.952156" style="fill: #222222; stroke: #222222; stroke-width: 0.55"/>
      </g>
     </g>
     <g id="easyviz-tick-label-5d983dcecf828e06">
      <text style="font-size: 8px; font-family: 'DejaVu Sans'; text-anchor: middle" x="61.897431" y="178.030906" transform="rotate(-0 61.897431 178.030906)">Control</text>
     </g>
    </g>
    <g id="xtick_2">
     <g id="easyviz-axis-tick-d2f9de54ec255438">
      <g>
       <use xlink:href="#me4a8c73573" x="106.474538" y="164.952156" style="fill: #222222; stroke: #222222; stroke-width: 0.55"/>
      </g>
     </g>
     <g id="easyviz-tick-label-92ea1202889afa8b">
      <text style="font-size: 8px; font-family: 'DejaVu Sans'; text-anchor: middle" x="106.474538" y="178.030281" transform="rotate(-0 106.474538 178.030281)">Low</text>
     </g>
    </g>
    <g id="xtick_3">
     <g id="easyviz-axis-tick-a369cdb522813c9c">
      <g>
       <use xlink:href="#me4a8c73573" x="151.051645" y="164.952156" style="fill: #222222; stroke: #222222; stroke-width: 0.55"/>
      </g>
     </g>
     <g id="easyviz-tick-label-b281a5203f58abf3">
      <text style="font-size: 8px; font-family: 'DejaVu Sans'; text-anchor: middle" x="151.051645" y="178.030906" transform="rotate(-0 151.051645 178.030906)">Medium</text>
     </g>
    </g>
    <g id="xtick_4">
     <g id="easyviz-axis-tick-8e9950117fc321fa">
      <g>
       <use xlink:href="#me4a8c73573" x="195.628752" y="164.952156" style="fill: #222222; stroke: #222222; stroke-width: 0.55"/>
      </g>
     </g>
     <g id="easyviz-tick-label-865985a3371cdbf9">
      <text style="font-size: 8px; font-family: 'DejaVu Sans'; text-anchor: middle" x="195.628752" y="178.030906" transform="rotate(-0 195.628752 178.030906)">High</text>
     </g>
    </g>
    <g id="easyviz-axis-label-ffb0bed284770937">
     <text style="font-size: 8px; font-family: 'DejaVu Sans'; text-anchor: middle" x="128.763091" y="190.031531" transform="rotate(-0 128.763091 190.031531)">Condition</text>
    </g>
   </g>
   <g id="matplotlib.axis_2">
    <g id="ytick_1">
     <g id="easyviz-axis-tick-8e1c294e3379762a">
      <defs>
       <path id="m3bdcf3bbb8" d="M 0 0 
L -3.5 0 
" style="stroke: #222222; stroke-width: 0.55"/>
      </defs>
      <g>
       <use xlink:href="#m3bdcf3bbb8" x="35.151166" y="164.952156" style="fill: #222222; stroke: #222222; stroke-width: 0.55"/>
      </g>
     </g>
     <g id="easyviz-tick-label-57febe4cb684f4bd">
      <text style="font-size: 8px; font-family: 'DejaVu Sans'; text-anchor: end" x="28.151166" y="167.991218" transform="rotate(-0 28.151166 167.991218)">0</text>
     </g>
    </g>
    <g id="ytick_2">
     <g id="easyviz-axis-tick-bd287d4ddd92159b">
      <g>
       <use xlink:href="#m3bdcf3bbb8" x="35.151166" y="133.703395" style="fill: #222222; stroke: #222222; stroke-width: 0.55"/>
      </g>
     </g>
     <g id="easyviz-tick-label-5a9aa9c621720d22">
      <text style="font-size: 8px; font-family: 'DejaVu Sans'; text-anchor: end" x="28.151166" y="136.742458" transform="rotate(-0 28.151166 136.742458)">2</text>
     </g>
    </g>
    <g id="ytick_3">
     <g id="easyviz-axis-tick-813f58dfce7a30f9">
      <g>
       <use xlink:href="#m3bdcf3bbb8" x="35.151166" y="102.454635" style="fill: #222222; stroke: #222222; stroke-width: 0.55"/>
      </g>
     </g>
     <g id="easyviz-tick-label-e500f07c8d8d5e1f">
      <text style="font-size: 8px; font-family: 'DejaVu Sans'; text-anchor: end" x="28.151166" y="105.493697" transform="rotate(-0 28.151166 105.493697)">4</text>
     </g>
    </g>
    <g id="ytick_4">
     <g id="easyviz-axis-tick-b279e7150157534f">
      <g>
       <use xlink:href="#m3bdcf3bbb8" x="35.151166" y="71.205875" style="fill: #222222; stroke: #222222; stroke-width: 0.55"/>
      </g>
     </g>
     <g id="easyviz-tick-label-4c3e3655610f1f10">
      <text style="font-size: 8px; font-family: 'DejaVu Sans'; text-anchor: end" x="28.151166" y="74.244937" transform="rotate(-0 28.151166 74.244937)">6</text>
     </g>
    </g>
    <g id="ytick_5">
     <g id="easyviz-axis-tick-33caf1f006d9d388">
      <g>
       <use xlink:href="#m3bdcf3bbb8" x="35.151166" y="39.957114" style="fill: #222222; stroke: #222222; stroke-width: 0.55"/>
      </g>
     </g>
     <g id="easyviz-tick-label-556c223d01e5de87">
      <text style="font-size: 8px; font-family: 'DejaVu Sans'; text-anchor: end" x="28.151166" y="42.996177" transform="rotate(-0 28.151166 42.996177)">8</text>
     </g>
    </g>
    <g id="ytick_6">
     <g id="easyviz-axis-tick-63bf692f9cee0146">
      <g>
       <use xlink:href="#m3bdcf3bbb8" x="35.151166" y="8.708354" style="fill: #222222; stroke: #222222; stroke-width: 0.55"/>
      </g>
     </g>
     <g id="easyviz-tick-label-2b892f5599040a30">
      <text style="font-size: 8px; font-family: 'DejaVu Sans'; text-anchor: end" x="28.151166" y="11.747416" transform="rotate(-0 28.151166 11.747416)">10</text>
     </g>
    </g>
    <g id="easyviz-axis-label-5f702097b13456c5">
     <text style="font-size: 8px; font-family: 'DejaVu Sans'; text-anchor: middle" x="12.049291" y="86.830255" transform="rotate(-90 12.049291 86.830255)">Response (a.u.)</text>
    </g>
   </g>
   <g id="easyviz-distribution-0de71de35dd240af">
    <path d="M 60.162343 129.016081 
L 63.632518 129.016081 
L 63.632518 117.613252 
L 60.162343 117.613252 
L 60.162343 129.016081 
L 60.162343 129.016081 
z
" clip-path="url(#pcb736e3ef9)" style="fill: none; stroke: #333333; stroke-width: 0.75; stroke-linejoin: miter"/>
   </g>
   <g id="line2d_1">
    <path d="M 61.897431 129.016081 
L 61.897431 134.609765 
" clip-path="url(#pcb736e3ef9)" style="fill: none; stroke: #333333; stroke-width: 0.75; stroke-linecap: square"/>
   </g>
   <g id="line2d_2">
    <path d="M 61.897431 117.613252 
L 61.897431 111.220225 
" clip-path="url(#pcb736e3ef9)" style="fill: none; stroke: #333333; stroke-width: 0.75; stroke-linecap: square"/>
   </g>
   <g id="line2d_3">
    <path d="M 61.029887 134.609765 
L 62.764975 134.609765 
" clip-path="url(#pcb736e3ef9)" style="fill: none; stroke: #333333; stroke-width: 0.75; stroke-linecap: square"/>
   </g>
   <g id="line2d_4">
    <path d="M 61.029887 111.220225 
L 62.764975 111.220225 
" clip-path="url(#pcb736e3ef9)" style="fill: none; stroke: #333333; stroke-width: 0.75; stroke-linecap: square"/>
   </g>
   <g id="easyviz-distribution-514bcc9e9a77159c">
    <path d="M 104.73945 108.50834 
L 108.209625 108.50834 
L 108.209625 97.582562 
L 104.73945 97.582562 
L 104.73945 108.50834 
L 104.73945 108.50834 
z
" clip-path="url(#pcb736e3ef9)" style="fill: none; stroke: #333333; stroke-width: 0.75; stroke-linejoin: miter"/>
   </g>
   <g id="line2d_5">
    <path d="M 106.474538 108.50834 
L 106.474538 114.298071 
" clip-path="url(#pcb736e3ef9)" style="fill: none; stroke: #333333; stroke-width: 0.75; stroke-linecap: square"/>
   </g>
   <g id="line2d_6">
    <path d="M 106.474538 97.582562 
L 106.474538 90.90853 
" clip-path="url(#pcb736e3ef9)" style="fill: none; stroke: #333333; stroke-width: 0.75; stroke-linecap: square"/>
   </g>
   <g id="line2d_7">
    <path d="M 105.606994 114.298071 
L 107.342082 114.298071 
" clip-path="url(#pcb736e3ef9)" style="fill: none; stroke: #333333; stroke-width: 0.75; stroke-linecap: square"/>
   </g>
   <g id="line2d_8">
    <path d="M 105.606994 90.90853 
L 107.342082 90.90853 
" clip-path="url(#pcb736e3ef9)" style="fill: none; stroke: #333333; stroke-width: 0.75; stroke-linecap: square"/>
   </g>
   <g id="easyviz-distribution-5564d836b0885fb5">
    <path d="M 149.316557 88.000599 
L 152.786732 88.000599 
L 152.786732 77.551873 
L 149.316557 77.551873 
L 149.316557 88.000599 
L 149.316557 88.000599 
z
" clip-path="url(#pcb736e3ef9)" style="fill: none; stroke: #333333; stroke-width: 0.75; stroke-linejoin: miter"/>
   </g>
   <g id="line2d_9">
    <path d="M 151.051645 88.000599 
L 151.051645 93.986377 
" clip-path="url(#pcb736e3ef9)" style="fill: none; stroke: #333333; stroke-width: 0.75; stroke-linecap: square"/>
   </g>
   <g id="line2d_10">
    <path d="M 151.051645 77.551873 
L 151.051645 70.596836 
" clip-path="url(#pcb736e3ef9)" style="fill: none; stroke: #333333; stroke-width: 0.75; stroke-linecap: square"/>
   </g>
   <g id="line2d_11">
    <path d="M 150.184101 93.986377 
L 151.919189 93.986377 
" clip-path="url(#pcb736e3ef9)" style="fill: none; stroke: #333333; stroke-width: 0.75; stroke-linecap: square"/>
   </g>
   <g id="line2d_12">
    <path d="M 150.184101 70.596836 
L 151.919189 70.596836 
" clip-path="url(#pcb736e3ef9)" style="fill: none; stroke: #333333; stroke-width: 0.75; stroke-linecap: square"/>
   </g>
   <g id="easyviz-distribution-b6f31bbbe0a7655f">
    <path d="M 193.893664 67.492858 
L 197.36384 67.492858 
L 197.36384 57.242757 
L 193.893664 57.242757 
L 193.893664 67.492858 
L 193.893664 67.492858 
z
" clip-path="url(#pcb736e3ef9)" style="fill: none; stroke: #333333; stroke-width: 0.75; stroke-linejoin: miter"/>
   </g>
   <g id="line2d_13">
    <path d="M 195.628752 67.492858 
L 195.628752 73.674683 
" clip-path="url(#pcb736e3ef9)" style="fill: none; stroke: #333333; stroke-width: 0.75; stroke-linecap: square"/>
   </g>
   <g id="line2d_14">
    <path d="M 195.628752 57.242757 
L 195.628752 50.285142 
" clip-path="url(#pcb736e3ef9)" style="fill: none; stroke: #333333; stroke-width: 0.75; stroke-linecap: square"/>
   </g>
   <g id="line2d_15">
    <path d="M 194.761208 73.674683 
L 196.496296 73.674683 
" clip-path="url(#pcb736e3ef9)" style="fill: none; stroke: #333333; stroke-width: 0.75; stroke-linecap: square"/>
   </g>
   <g id="line2d_16">
    <path d="M 194.761208 50.285142 
L 196.496296 50.285142 
" clip-path="url(#pcb736e3ef9)" style="fill: none; stroke: #333333; stroke-width: 0.75; stroke-linecap: square"/>
   </g>
   <g id="line2d_17">
    <path d="M 60.162343 118.990854 
L 63.632518 118.990854 
" clip-path="url(#pcb736e3ef9)" style="fill: none; stroke: #333333; stroke-width: 0.75"/>
   </g>
   <g id="line2d_18">
    <path d="M 104.73945 102.213629 
L 108.209625 102.213629 
" clip-path="url(#pcb736e3ef9)" style="fill: none; stroke: #333333; stroke-width: 0.75"/>
   </g>
   <g id="line2d_19">
    <path d="M 149.316557 85.436404 
L 152.786732 85.436404 
" clip-path="url(#pcb736e3ef9)" style="fill: none; stroke: #333333; stroke-width: 0.75"/>
   </g>
   <g id="line2d_20">
    <path d="M 193.893664 61.59024 
L 197.36384 61.59024 
" clip-path="url(#pcb736e3ef9)" style="fill: none; stroke: #333333; stroke-width: 0.75"/>
   </g>
   <g id="easyviz-axis-line-a25b05ec84419760">
    <path d="M 35.151166 164.952156 
L 35.151166 8.708354 
" style="fill: none; stroke: #222222; stroke-width: 0.55; stroke-linejoin: miter; stroke-linecap: square"/>
   </g>
   <g id="easyviz-axis-line-583586e852f58ad3">
    <path d="M 35.151166 164.952156 
L 222.375016 164.952156 
" style="fill: none; stroke: #222222; stroke-width: 0.55; stroke-linejoin: miter; stroke-linecap: square"/>
   </g>
   <g id="easyviz-point-group-0911b03899371df6">
    <defs>
     <path id="m0a43dfae0c" d="M 0 1.732051 
C 0.459345 1.732051 0.899939 1.549551 1.224745 1.224745 
C 1.549551 0.899939 1.732051 0.459345 1.732051 0 
C 1.732051 -0.459345 1.549551 -0.899939 1.224745 -1.224745 
C 0.899939 -1.549551 0.459345 -1.732051 0 -1.732051 
C -0.459345 -1.732051 -0.899939 -1.549551 -1.224745 -1.224745 
C -1.549551 -0.899939 -1.732051 -0.459345 -1.732051 0 
C -1.732051 0.459345 -1.549551 0.899939 -1.224745 1.224745 
C -0.899939 1.549551 -0.459345 1.732051 0 1.732051 
z
"/>
    </defs>
    <g clip-path="url(#pcb736e3ef9)">
     <use xlink:href="#m0a43dfae0c" x="69.458368" y="129.016081" style="fill: #2581b9"/>
     <use xlink:href="#m0a43dfae0c" x="69.427007" y="118.73727" style="fill: #2581b9"/>
     <use xlink:href="#m0a43dfae0c" x="73.082324" y="118.990854" style="fill: #2581b9"/>
     <use xlink:href="#m0a43dfae0c" x="76.498424" y="128.231893" style="fill: #2581b9"/>
     <use xlink:href="#m0a43dfae0c" x="73.082324" y="134.609765" style="fill: #2581b9"/>
     <use xlink:href="#m0a43dfae0c" x="73.082324" y="129.556997" style="fill: #2581b9"/>
     <use xlink:href="#m0a43dfae0c" x="76.477593" y="117.613252" style="fill: #2581b9"/>
     <use xlink:href="#m0a43dfae0c" x="73.082324" y="111.220225" style="fill: #2581b9"/>
     <use xlink:href="#m0a43dfae0c" x="66.560981" y="116.454392" style="fill: #2581b9"/>
    </g>
   </g>
   <g id="easyviz-point-group-273e7ce7a51282c2">
    <defs>
     <path id="m6c6dae4e5e" d="M 0 1.732051 
C 0.459345 1.732051 0.899939 1.549551 1.224745 1.224745 
C 1.549551 0.899939 1.732051 0.459345 1.732051 0 
C 1.732051 -0.459345 1.549551 -0.899939 1.224745 -1.224745 
C 0.899939 -1.549551 0.459345 -1.732051 0 -1.732051 
C -0.459345 -1.732051 -0.899939 -1.549551 -1.224745 -1.224745 
C -1.549551 -0.899939 -1.732051 -0.459345 -1.732051 0 
C -1.732051 0.459345 -1.549551 0.899939 -1.224745 1.224745 
C -0.899939 1.549551 -0.459345 1.732051 0 1.732051 
z
"/>
    </defs>
    <g clip-path="url(#pcb736e3ef9)">
     <use xlink:href="#m6c6dae4e5e" x="121.283386" y="108.704387" style="fill: #df9a3c"/>
     <use xlink:href="#m6c6dae4e5e" x="114.004114" y="98.425576" style="fill: #df9a3c"/>
     <use xlink:href="#m6c6dae4e5e" x="117.659431" y="98.67916" style="fill: #df9a3c"/>
     <use xlink:href="#m6c6dae4e5e" x="114.24333" y="107.920199" style="fill: #df9a3c"/>
     <use xlink:href="#m6c6dae4e5e" x="117.659431" y="114.298071" style="fill: #df9a3c"/>
     <use xlink:href="#m6c6dae4e5e" x="117.659431" y="109.245303" style="fill: #df9a3c"/>
     <use xlink:href="#m6c6dae4e5e" x="121.0547" y="97.301558" style="fill: #df9a3c"/>
     <use xlink:href="#m6c6dae4e5e" x="117.659431" y="90.90853" style="fill: #df9a3c"/>
     <use xlink:href="#m6c6dae4e5e" x="111.138088" y="96.142698" style="fill: #df9a3c"/>
     <use xlink:href="#m6c6dae4e5e" x="118.752682" y="105.748098" style="fill: #df9a3c"/>
    </g>
   </g>
   <g id="easyviz-point-group-d1a696d0cf275769">
    <defs>
     <path id="m1f2326ffa2" d="M 0 1.732051 
C 0.459345 1.732051 0.899939 1.549551 1.224745 1.224745 
C 1.549551 0.899939 1.732051 0.459345 1.732051 0 
C 1.732051 -0.459345 1.549551 -0.899939 1.224745 -1.224745 
C 0.899939 -1.549551 0.459345 -1.732051 0 -1.732051 
C -0.459345 -1.732051 -0.899939 -1.549551 -1.224745 -1.224745 
C -1.549551 -0.899939 -1.732051 -0.459345 -1.732051 0 
C -1.732051 0.459345 -1.549551 0.899939 -1.224745 1.224745 
C -0.899939 1.549551 -0.459345 1.732051 0 1.732051 
z
"/>
    </defs>
    <g clip-path="url(#pcb736e3ef9)">
     <use xlink:href="#m1f2326ffa2" x="158.612583" y="88.392693" style="fill: #1aa781"/>
     <use xlink:href="#m1f2326ffa2" x="165.891854" y="78.113882" style="fill: #1aa781"/>
     <use xlink:href="#m1f2326ffa2" x="162.236538" y="78.367465" style="fill: #1aa781"/>
     <use xlink:href="#m1f2326ffa2" x="165.652638" y="87.608505" style="fill: #1aa781"/>
     <use xlink:href="#m1f2326ffa2" x="162.236538" y="93.986377" style="fill: #1aa781"/>
     <use xlink:href="#m1f2326ffa2" x="162.236538" y="88.933609" style="fill: #1aa781"/>
     <use xlink:href="#m1f2326ffa2" x="158.841268" y="76.989864" style="fill: #1aa781"/>
     <use xlink:href="#m1f2326ffa2" x="162.236538" y="70.596836" style="fill: #1aa781"/>
     <use xlink:href="#m1f2326ffa2" x="168.75788" y="75.831004" style="fill: #1aa781"/>
     <use xlink:href="#m1f2326ffa2" x="161.143287" y="85.436404" style="fill: #1aa781"/>
     <use xlink:href="#m1f2326ffa2" x="169.287236" y="87.144461" style="fill: #1aa781"/>
    </g>
   </g>
   <g id="easyviz-point-group-3c51fa9557cad58d">
    <defs>
     <path id="m363f6db1f7" d="M 0 1.732051 
C 0.459345 1.732051 0.899939 1.549551 1.224745 1.224745 
C 1.549551 0.899939 1.732051 0.459345 1.732051 0 
C 1.732051 -0.459345 1.549551 -0.899939 1.224745 -1.224745 
C 0.899939 -1.549551 0.459345 -1.732051 0 -1.732051 
C -0.459345 -1.732051 -0.899939 -1.549551 -1.224745 -1.224745 
C -1.549551 -0.899939 -1.732051 -0.459345 -1.732051 0 
C -1.732051 0.459345 -1.549551 0.899939 -1.224745 1.224745 
C -0.899939 1.549551 -0.459345 1.732051 0 1.732051 
z
"/>
    </defs>
    <g clip-path="url(#pcb736e3ef9)">
     <use xlink:href="#m363f6db1f7" x="210.4376" y="68.080998" style="fill: #cc86b9"/>
     <use xlink:href="#m363f6db1f7" x="210.468961" y="57.802187" style="fill: #cc86b9"/>
     <use xlink:href="#m363f6db1f7" x="206.813645" y="58.055771" style="fill: #cc86b9"/>
     <use xlink:href="#m363f6db1f7" x="203.397544" y="67.296811" style="fill: #cc86b9"/>
     <use xlink:href="#m363f6db1f7" x="206.813645" y="73.674683" style="fill: #cc86b9"/>
     <use xlink:href="#m363f6db1f7" x="206.813645" y="68.621915" style="fill: #cc86b9"/>
     <use xlink:href="#m363f6db1f7" x="213.956399" y="56.67817" style="fill: #cc86b9"/>
     <use xlink:href="#m363f6db1f7" x="206.813645" y="50.285142" style="fill: #cc86b9"/>
     <use xlink:href="#m363f6db1f7" x="200.077308" y="55.519309" style="fill: #cc86b9"/>
     <use xlink:href="#m363f6db1f7" x="207.906896" y="65.12471" style="fill: #cc86b9"/>
     <use xlink:href="#m363f6db1f7" x="199.762946" y="66.832767" style="fill: #cc86b9"/>
     <use xlink:href="#m363f6db1f7" x="203.203209" y="57.430952" style="fill: #cc86b9"/>
    </g>
   </g>
  </g>
 </g>
 <defs>
  <clipPath id="pcb736e3ef9">
   <rect x="35.151166" y="8.708354" width="187.223849" height="156.243802"/>
  </clipPath>
 </defs>
</svg>
