<?xml version="1.0" encoding="utf-8" standalone="no"?>
<!DOCTYPE svg PUBLIC "-//W3C//DTD SVG 1.1//EN"
  "http://www.w3.org/Graphics/SVG/1.1/DTD/svg11.dtd">
<svg xmlns:xlink="http://www.w3.org/1999/xlink" width="340.15748pt" height="255.11811pt" viewBox="0 0 340.15748 255.11811" xmlns="http://www.w3.org/2000/svg" version="1.1">
 <metadata>
  <rdf:RDF xmlns:dc="http://purl.org/dc/elements/1.1/" xmlns:cc="http://creativecommons.org/ns#" xmlns:rdf="http://www.w3.org/1999/02/22-rdf-syntax-ns#">
   <cc:Work>
    <dc:type rdf:resource="http://purl.org/dc/dcmitype/StillImage"/>
    <dc:format>image/svg+xml</dc:format>
    <dc:creator>
     <cc:Agent>
      <dc:title>EasyViz</dc:title>
     </cc:Agent>
    </dc:creator>
   </cc:Work>
  </rdf:RDF>
 </metadata>
 <defs>
  <style type="text/css">*{stroke-linejoin: round; stroke-linecap: butt}</style>
 </defs>
 <g id="figure_1">
  <g id="patch_1">
   <path d="M 0 255.11811 
L 340.15748 255.11811 
L 340.15748 0 
L 0 0 
z
" style="fill: #ffffff"/>
  </g>
  <g id="easyviz-axes-c733e892ae73784e">
   <g id="patch_2">
    <path d="M 32.817104 223.433194 
L 334.488189 223.433194 
L 334.488189 8.581401 
L 32.817104 8.581401 
z
" style="fill: #ffffff"/>
   </g>
   <g id="matplotlib.axis_1">
    <g id="xtick_1">
     <g id="line2d_1">
      <path d="M 115.091036 223.433194 
L 115.091036 8.581401 
" clip-path="url(#p91a985fa68)" style="fill: none; stroke: #e5e5e5; stroke-width: 0.4; stroke-linecap: square"/>
     </g>
     <g id="line2d_2">
      <defs>
       <path id="m4a1f4d3a17" d="M 0 0 
L 0 3.5 
" style="stroke: #000000; stroke-width: 0.6"/>
      </defs>
      <g>
       <use xlink:href="#m4a1f4d3a17" x="115.091036" y="223.433194" style="stroke: #000000; stroke-width: 0.6"/>
      </g>
     </g>
     <g id="text_1">
      <text style="font-size: 8px; font-family: 'Arial'; text-anchor: middle" x="115.091036" y="236.257413" transform="rotate(-0 115.091036 236.257413)">Control</text>
     </g>
    </g>
    <g id="xtick_2">
     <g id="line2d_3">
      <path d="M 252.214257 223.433194 
L 252.214257 8.581401 
" clip-path="url(#p91a985fa68)" style="fill: none; stroke: #e5e5e5; stroke-width: 0.4; stroke-linecap: square"/>
     </g>
     <g id="line2d_4">
      <g>
       <use xlink:href="#m4a1f4d3a17" x="252.214257" y="223.433194" style="stroke: #000000; stroke-width: 0.6"/>
      </g>
     </g>
     <g id="text_2">
      <text style="font-size: 8px; font-family: 'Arial'; text-anchor: middle" x="252.214257" y="236.257413" transform="rotate(-0 252.214257 236.257413)">Treatment</text>
     </g>
    </g>
    <g id="easyviz-axis-label-ffb0bed284770937">
     <text style="font-size: 8px; font-family: 'Arial'; text-anchor: middle" x="183.652646" y="247.765225" transform="rotate(-0 183.652646 247.765225)">Condition</text>
    </g>
   </g>
   <g id="matplotlib.axis_2">
    <g id="ytick_1">
     <g id="line2d_5">
      <path d="M 32.817104 223.433194 
L 334.488189 223.433194 
" clip-path="url(#p91a985fa68)" style="fill: none; stroke: #e5e5e5; stroke-width: 0.4; stroke-linecap: square"/>
     </g>
     <g id="line2d_6">
      <defs>
       <path id="me4ba3097ba" d="M 0 0 
L -3.5 0 
" style="stroke: #000000; stroke-width: 0.6"/>
      </defs>
      <g>
       <use xlink:href="#me4ba3097ba" x="32.817104" y="223.433194" style="stroke: #000000; stroke-width: 0.6"/>
      </g>
     </g>
     <g id="text_3">
      <text style="font-size: 8px; font-family: 'Arial'; text-anchor: end" x="25.817104" y="226.345303" transform="rotate(-0 25.817104 226.345303)">0</text>
     </g>
    </g>
    <g id="ytick_2">
     <g id="line2d_7">
      <path d="M 32.817104 180.462835 
L 334.488189 180.462835 
" clip-path="url(#p91a985fa68)" style="fill: none; stroke: #e5e5e5; stroke-width: 0.4; stroke-linecap: square"/>
     </g>
     <g id="line2d_8">
      <g>
       <use xlink:href="#me4ba3097ba" x="32.817104" y="180.462835" style="stroke: #000000; stroke-width: 0.6"/>
      </g>
     </g>
     <g id="text_4">
      <text style="font-size: 8px; font-family: 'Arial'; text-anchor: end" x="25.817104" y="183.374945" transform="rotate(-0 25.817104 183.374945)">2</text>
     </g>
    </g>
    <g id="ytick_3">
     <g id="line2d_9">
      <path d="M 32.817104 137.492477 
L 334.488189 137.492477 
" clip-path="url(#p91a985fa68)" style="fill: none; stroke: #e5e5e5; stroke-width: 0.4; stroke-linecap: square"/>
     </g>
     <g id="line2d_10">
      <g>
       <use xlink:href="#me4ba3097ba" x="32.817104" y="137.492477" style="stroke: #000000; stroke-width: 0.6"/>
      </g>
     </g>
     <g id="text_5">
      <text style="font-size: 8px; font-family: 'Arial'; text-anchor: end" x="25.817104" y="140.404586" transform="rotate(-0 25.817104 140.404586)">4</text>
     </g>
    </g>
    <g id="ytick_4">
     <g id="line2d_11">
      <path d="M 32.817104 94.522118 
L 334.488189 94.522118 
" clip-path="url(#p91a985fa68)" style="fill: none; stroke: #e5e5e5; stroke-width: 0.4; stroke-linecap: square"/>
     </g>
     <g id="line2d_12">
      <g>
       <use xlink:href="#me4ba3097ba" x="32.817104" y="94.522118" style="stroke: #000000; stroke-width: 0.6"/>
      </g>
     </g>
     <g id="text_6">
      <text style="font-size: 8px; font-family: 'Arial'; text-anchor: end" x="25.817104" y="97.434227" transform="rotate(-0 25.817104 97.434227)">6</text>
     </g>
    </g>
    <g id="ytick_5">
     <g id="line2d_13">
      <path d="M 32.817104 51.551759 
L 334.488189 51.551759 
" clip-path="url(#p91a985fa68)" style="fill: none; stroke: #e5e5e5; stroke-width: 0.4; stroke-linecap: square"/>
     </g>
     <g id="line2d_14">
      <g>
       <use xlink:href="#me4ba3097ba" x="32.817104" y="51.551759" style="stroke: #000000; stroke-width: 0.6"/>
      </g>
     </g>
     <g id="text_7">
      <text style="font-size: 8px; font-family: 'Arial'; text-anchor: end" x="25.817104" y="54.463869" transform="rotate(-0 25.817104 54.463869)">8</text>
     </g>
    </g>
    <g id="ytick_6">
     <g id="line2d_15">
      <path d="M 32.817104 8.581401 
L 334.488189 8.581401 
" clip-path="url(#p91a985fa68)" style="fill: none; stroke: #e5e5e5; stroke-width: 0.4; stroke-linecap: square"/>
     </g>
     <g id="line2d_16">
      <g>
       <use xlink:href="#me4ba3097ba" x="32.817104" y="8.581401" style="stroke: #000000; stroke-width: 0.6"/>
      </g>
     </g>
     <g id="text_8">
      <text style="font-size: 8px; font-family: 'Arial'; text-anchor: end" x="25.817104" y="11.49351" transform="rotate(-0 25.817104 11.49351)">10</text>
     </g>
    </g>
    <g id="easyviz-axis-label-5f702097b13456c5">
     <text style="font-size: 8px; font-family: 'Arial'; text-anchor: middle" x="11.235854" y="116.007297" transform="rotate(-90 11.235854 116.007297)">Fluorescence signal (a.u.)</text>
    </g>
   </g>
   <g id="easyviz-distribution-0de71de35dd240af">
    <path d="M 80.810231 118.360462 
L 149.371841 118.360462 
L 149.371841 93.487607 
L 80.810231 93.487607 
L 80.810231 118.360462 
z
" clip-path="url(#p91a985fa68)" style="fill: #29acf3; fill-opacity: 0.22; stroke: #29acf3; stroke-width: 0.6; stroke-linejoin: miter"/>
   </g>
   <g id="line2d_17">
    <path d="M 115.091036 118.360462 
L 115.091036 136.48697 
" clip-path="url(#p91a985fa68)" style="fill: none; stroke: #000000; stroke-width: 0.6; stroke-linecap: square"/>
   </g>
   <g id="line2d_18">
    <path d="M 115.091036 93.487607 
L 115.091036 71.189213 
" clip-path="url(#p91a985fa68)" style="fill: none; stroke: #000000; stroke-width: 0.6; stroke-linecap: square"/>
   </g>
   <g id="line2d_19">
    <path d="M 97.950634 136.48697 
L 132.231439 136.48697 
" clip-path="url(#p91a985fa68)" style="fill: none; stroke: #000000; stroke-width: 0.6; stroke-linecap: square"/>
   </g>
   <g id="line2d_20">
    <path d="M 97.950634 71.189213 
L 132.231439 71.189213 
" clip-path="url(#p91a985fa68)" style="fill: none; stroke: #000000; stroke-width: 0.6; stroke-linecap: square"/>
   </g>
   <g id="easyviz-distribution-617c212a20110466">
    <path d="M 217.933452 94.425435 
L 286.495062 94.425435 
L 286.495062 51.769297 
L 217.933452 51.769297 
L 217.933452 94.425435 
z
" clip-path="url(#p91a985fa68)" style="fill: #e47751; fill-opacity: 0.22; stroke: #e47751; stroke-width: 0.6; stroke-linejoin: miter"/>
   </g>
   <g id="line2d_21">
    <path d="M 252.214257 94.425435 
L 252.214257 106.487214 
" clip-path="url(#p91a985fa68)" style="fill: none; stroke: #000000; stroke-width: 0.6; stroke-linecap: square"/>
   </g>
   <g id="line2d_22">
    <path d="M 252.214257 51.769297 
L 252.214257 36.881679 
" clip-path="url(#p91a985fa68)" style="fill: none; stroke: #000000; stroke-width: 0.6; stroke-linecap: square"/>
   </g>
   <g id="line2d_23">
    <path d="M 235.073854 106.487214 
L 269.354659 106.487214 
" clip-path="url(#p91a985fa68)" style="fill: none; stroke: #000000; stroke-width: 0.6; stroke-linecap: square"/>
   </g>
   <g id="line2d_24">
    <path d="M 235.073854 36.881679 
L 269.354659 36.881679 
" clip-path="url(#p91a985fa68)" style="fill: none; stroke: #000000; stroke-width: 0.6; stroke-linecap: square"/>
   </g>
   <g id="line2d_25">
    <path d="M 80.810231 105.946862 
L 149.371841 105.946862 
" clip-path="url(#p91a985fa68)" style="fill: none; stroke: #222222; stroke-width: 0.6"/>
   </g>
   <g id="line2d_26">
    <path d="M 217.933452 83.310077 
L 286.495062 83.310077 
" clip-path="url(#p91a985fa68)" style="fill: none; stroke: #222222; stroke-width: 0.6"/>
   </g>
   <g id="patch_3">
    <path d="M 32.817104 223.433194 
L 32.817104 8.581401 
" style="fill: none; stroke: #000000; stroke-width: 0.6; stroke-linejoin: miter; stroke-linecap: square"/>
   </g>
   <g id="patch_4">
    <path d="M 32.817104 223.433194 
L 334.488189 223.433194 
" style="fill: none; stroke: #000000; stroke-width: 0.6; stroke-linejoin: miter; stroke-linecap: square"/>
   </g>
   <g id="easyviz-point-group-0911b03899371df6">
    <defs>
     <path id="m338c716037" d="M 0 2 
C 0.530406 2 1.03916 1.789267 1.414214 1.414214 
C 1.789267 1.03916 2 0.530406 2 0 
C 2 -0.530406 1.789267 -1.03916 1.414214 -1.414214 
C 1.03916 -1.789267 0.530406 -2 0 -2 
C -0.530406 -2 -1.03916 -1.789267 -1.414214 -1.414214 
C -1.789267 -1.03916 -2 -0.530406 -2 0 
C -2 0.530406 -1.789267 1.03916 -1.414214 1.414214 
C -1.03916 1.789267 -0.530406 2 0 2 
z
"/>
    </defs>
    <g clip-path="url(#p91a985fa68)">
     <use xlink:href="#m338c716037" x="122.369508" y="168.938185" style="fill: #29acf3; fill-opacity: 0.9"/>
     <use xlink:href="#m338c716037" x="120.854855" y="93.780879" style="fill: #29acf3; fill-opacity: 0.9"/>
     <use xlink:href="#m338c716037" x="99.724767" y="78.943214" style="fill: #29acf3; fill-opacity: 0.9"/>
     <use xlink:href="#m338c716037" x="122.321328" y="107.398186" style="fill: #29acf3; fill-opacity: 0.9"/>
     <use xlink:href="#m338c716037" x="108.63667" y="112.243094" style="fill: #29acf3; fill-opacity: 0.9"/>
     <use xlink:href="#m338c716037" x="113.311845" y="103.051734" style="fill: #29acf3; fill-opacity: 0.9"/>
     <use xlink:href="#m338c716037" x="132.225923" y="104.495538" style="fill: #29acf3; fill-opacity: 0.9"/>
     <use xlink:href="#m338c716037" x="99.562153" y="156.545534" style="fill: #29acf3; fill-opacity: 0.9"/>
     <use xlink:href="#m338c716037" x="103.813625" y="112.318292" style="fill: #29acf3; fill-opacity: 0.9"/>
     <use xlink:href="#m338c716037" x="101.126889" y="92.607789" style="fill: #29acf3; fill-opacity: 0.9"/>
     <use xlink:href="#m338c716037" x="127.5197" y="71.189213" style="fill: #29acf3; fill-opacity: 0.9"/>
     <use xlink:href="#m338c716037" x="122.197854" y="136.48697" style="fill: #29acf3; fill-opacity: 0.9"/>
    </g>
   </g>
   <g id="easyviz-point-group-c0128ea88b584ba8">
    <defs>
     <path id="m8c0a357ec7" d="M 0 2 
C 0.530406 2 1.03916 1.789267 1.414214 1.414214 
C 1.789267 1.03916 2 0.530406 2 0 
C 2 -0.530406 1.789267 -1.03916 1.414214 -1.414214 
C 1.03916 -1.789267 0.530406 -2 0 -2 
C -0.530406 -2 -1.03916 -1.789267 -1.414214 -1.414214 
C -1.789267 -1.03916 -2 -0.530406 -2 0 
C -2 0.530406 -1.789267 1.03916 -1.414214 1.414214 
C -1.03916 1.789267 -0.530406 2 0 2 
z
"/>
    </defs>
    <g clip-path="url(#p91a985fa68)">
     <use xlink:href="#m8c0a357ec7" x="243.111399" y="48.831736" style="fill: #e47751; fill-opacity: 0.9"/>
     <use xlink:href="#m8c0a357ec7" x="238.997053" y="85.15458" style="fill: #e47751; fill-opacity: 0.9"/>
     <use xlink:href="#m8c0a357ec7" x="259.63037" y="39.537247" style="fill: #e47751; fill-opacity: 0.9"/>
     <use xlink:href="#m8c0a357ec7" x="241.256741" y="81.465575" style="fill: #e47751; fill-opacity: 0.9"/>
     <use xlink:href="#m8c0a357ec7" x="244.463767" y="36.881679" style="fill: #e47751; fill-opacity: 0.9"/>
     <use xlink:href="#m8c0a357ec7" x="259.559277" y="96.629814" style="fill: #e47751; fill-opacity: 0.9"/>
     <use xlink:href="#m8c0a357ec7" x="236.71238" y="60.670069" style="fill: #e47751; fill-opacity: 0.9"/>
     <use xlink:href="#m8c0a357ec7" x="245.422218" y="106.487214" style="fill: #e47751; fill-opacity: 0.9"/>
     <use xlink:href="#m8c0a357ec7" x="252.443086" y="93.690642" style="fill: #e47751; fill-opacity: 0.9"/>
     <use xlink:href="#m8c0a357ec7" x="256.872472" y="89.771745" style="fill: #e47751; fill-opacity: 0.9"/>
     <use xlink:href="#m8c0a357ec7" x="248.614121" y="99.526016" style="fill: #e47751; fill-opacity: 0.9"/>
     <use xlink:href="#m8c0a357ec7" x="269.785642" y="52.748484" style="fill: #e47751; fill-opacity: 0.9"/>
    </g>
   </g>
  </g>
 </g>
 <defs>
  <clipPath id="p91a985fa68">
   <rect x="32.817104" y="8.581401" width="301.671085" height="214.851793"/>
  </clipPath>
 </defs>
</svg>
